<?xml version="1.0" encoding="UTF-8" standalone="no"?>
<!-- Created with Inkscape (http://www.inkscape.org/) -->

<svg
   width="215.55417mm"
   height="87.504997mm"
   viewBox="0 0 215.55417 87.505002"
   version="1.1"
   id="svg5"
   sodipodi:docname="header-logo.svg"
   inkscape:version="1.1.1 (3bf5ae0d25, 2021-09-20)"
   xmlns:inkscape="http://www.inkscape.org/namespaces/inkscape"
   xmlns:sodipodi="http://sodipodi.sourceforge.net/DTD/sodipodi-0.dtd"
   xmlns="http://www.w3.org/2000/svg"
   xmlns:svg="http://www.w3.org/2000/svg">
  <sodipodi:namedview
     id="namedview7"
     pagecolor="#ffffff"
     bordercolor="#666666"
     borderopacity="1.0"
     inkscape:pageshadow="2"
     inkscape:pageopacity="0.0"
     inkscape:pagecheckerboard="0"
     inkscape:document-units="mm"
     showgrid="false"
     inkscape:zoom="0.1341747"
     inkscape:cx="-782.56184"
     inkscape:cy="-465.81062"
     inkscape:window-width="1920"
     inkscape:window-height="1011"
     inkscape:window-x="-8"
     inkscape:window-y="-8"
     inkscape:window-maximized="1"
     inkscape:current-layer="layer1"
     fit-margin-top="0"
     fit-margin-left="0"
     fit-margin-right="0"
     fit-margin-bottom="0" />
  <defs
     id="defs2" />
  <g
     inkscape:groupmode="layer"
     id="layer2"
     inkscape:label="white"
     transform="translate(-72.150444,-210.82362)"
     style="display:inline" />
  <g
     inkscape:label="Logo"
     inkscape:groupmode="layer"
     id="layer1"
     style="display:inline"
     transform="translate(-72.150444,-210.82362)">
    <g
       id="g8103">
      <path
         stroke="#000000"
         stroke-width="1.40249"
         d="m 116.77363,293.88956 c 8.73618,0 16.82133,-2.72766 23.41415,-7.35997 10.15467,-7.13499 16.76907,-18.78877 16.76907,-31.95394 0,-21.71258 -17.99094,-39.31297 -40.18322,-39.31297 -22.193249,0 -40.184126,17.60039 -40.184126,39.31297 0,21.71258 17.990877,39.31391 40.183196,39.31391 z"
         id="path834"
         sodipodi:nodetypes="sssssss"
         style="display:inline;fill:#ffffff;fill-opacity:1;stroke:#ffffff;stroke-width:8.87812;stroke-miterlimit:4;stroke-dasharray:none;stroke-opacity:1" />
      <g
         id="g15727">
        <path
           stroke="#000000"
           stroke-width="1.40249"
           d="m 116.54835,293.40773 c 8.51482,0 16.39511,-2.65856 22.82088,-7.17348 9.89737,-6.95421 16.34419,-18.3127 16.34419,-31.14429 0,-21.16243 -17.5351,-38.31688 -39.16507,-38.31688 -21.630931,0 -39.165956,17.15445 -39.165956,38.31688 0,21.16241 17.535025,38.31777 39.165036,38.31777 z"
           id="path834-5"
           sodipodi:nodetypes="sssssss"
           style="display:inline;fill:#ffffff;fill-opacity:1;stroke-width:4.80037;stroke-miterlimit:4;stroke-dasharray:none" />
        <path
           d="m 114.23902,290.28034 c 2.1399,-3.21156 -9.21589,-16.6361 -12.72724,-22.14828 -0.97634,-1.53268 -1.998762,-1.27724 -2.532906,-1.32472 -2.242277,1.51321 -2.028463,4.36148 -4.889507,4.69374 -1.521125,3.65182 -5.501052,2.2343 -8.538755,2.88901 5.915974,10.29463 22.870278,17.9527 28.688408,15.89025 z"
           style="display:inline;fill:#af2f3c;fill-opacity:1;stroke-width:0.820306"
           id="path5967"
           sodipodi:nodetypes="cscccc" />
        <path
           d="m 129.8117,276.66166 c -3.99078,-3.95841 -0.63872,4.30124 -3.01777,5.22088 -0.43486,2.79418 -4.39306,6.02257 -1.58635,8.52977 7.28127,-0.56166 23.61591,-11.72626 13.52879,-9.80556 -2.36429,-2.03077 -5.67791,-2.94872 -8.92467,-3.94509 z"
           style="display:inline;fill:#af2f3c;fill-opacity:1;stroke-width:0.820306"
           id="path8145"
           sodipodi:nodetypes="ccccc" />
        <path
           d="m 117.57931,290.25629 c 0.5119,-2.52575 -2.70249,0.61839 0,0 z m 3.07761,0.0177 c 0.46023,-2.65079 -3.5179,-1.9801 -1.31731,0.18398 0.43489,-0.10928 0.89421,-0.0177 1.31731,-0.18398 z m -4.278,-3.20447 c 1.40334,-2.66845 -2.27399,-2.25913 -0.63781,0.11029 l 0.26272,0.0424 z m 6.71321,0.008 c 1.2919,-2.26536 -2.04384,-2.24588 -2.9462,-3.04937 0.53995,0.94614 0.66768,4.23652 2.94529,3.04935 z m -5.68042,-4.27395 c 1.24664,-0.43758 2.457,-3.69172 0.31709,-2.85624 1.09442,1.46356 -2.82389,2.64896 -0.31709,2.85624 z m -4.30968,-1.19686 c 0.22649,-1.88529 -3.30317,-2.91654 -1.93787,0.0361 0.58434,0.27985 1.37164,0.29658 1.93787,-0.0361 z m 9.98649,0.0568 c 2.17343,-0.59265 1.03552,-5.0144 0.11031,-1.99069 0.40769,0.67864 -2.40355,2.15815 -0.11031,1.98983 z"
           style="display:inline;fill:#af2f3c;fill-opacity:1;stroke-width:0.820306"
           id="path10568" />
        <g
           id="g1541"
           style="display:inline;fill:none"
           transform="matrix(0.35896212,0,0,0.35102598,73.343268,205.15506)">
          <path
             fill="#000000"
             d="M 113.15545,251.88542 C 103.91814,249.03852 94.509202,248.0214 85.670657,245.96698 77.102166,241.92124 67.625086,238.30455 59.397315,232.88079 50.101953,226.15976 41.556176,219.4463 33.96694,210.22161 28.111594,200.00756 20.171542,192.51676 18.076742,181.13164 c -3.866548,-7.52109 -6.428262,-15.71857 -6.158209,-25.08965 -3.6848303,-10.00457 -0.07572,-19.03997 0.0429,-29.1354 1.314929,-9.66132 3.689878,-19.22673 8.419584,-26.55096 C 23.472746,88.965462 31.655088,81.237415 38.297877,71.588713 46.096593,64.388151 51.434549,56.205809 60.570908,51.390292 86.071951,32.380607 106.43442,28.991068 133.99998,30.689623 c 17.69728,2.309329 31.21505,6.168305 45.20479,14.938705 9.70422,6.715981 19.1813,13.800446 25.15022,23.131142 7.15009,8.409488 12.93981,18.376196 17.20765,27.918897 18.12886,63.116593 2.02414,81.189933 -11.59711,110.189033 -7.19804,7.26871 -8.86631,13.54301 -22.81566,23.76211 -8.22273,7.24599 -19.2116,10.70872 -28.20662,15.31728 -9.83294,1.54713 -19.68103,4.07855 -30.02632,5.87554 -5.24962,0.0454 -10.50933,0.22967 -15.76148,0.0631 z m 0.7723,-9.38117 c 3.57631,-13.00795 -15.445999,-17.36413 -17.944616,-27.62865 -7.521092,-7.04913 -7.76843,-16.79374 -15.670623,-23.02514 -3.556114,-4.78271 -1.648078,-15.55705 -8.896593,-16.21578 -6.246544,4.31075 -5.650914,12.42495 -13.621252,13.37139 -4.237554,10.40334 -15.324854,6.36517 -23.787344,8.2303 16.480781,29.32721 63.712225,51.14342 79.920428,45.26788 z m 9.30546,-0.0757 c 1.42598,-7.19552 -7.52866,1.76165 0,0 z m 8.57354,0.0555 c 1.28212,-7.55138 -9.80014,-5.64082 -3.66969,0.52496 1.21145,-0.31043 2.49105,-0.0505 3.66969,-0.52496 z m 50.36607,-27.53527 c -8.12429,-5.71906 -20.12523,0.20696 -24.86251,-11.24126 -11.11758,-11.27658 -1.77931,12.25333 -8.40696,14.87309 -1.21145,7.96024 -12.23818,17.15717 -4.41927,24.29969 20.28423,-1.60013 65.78936,-33.40576 37.68874,-27.93404 z m -62.28372,18.40648 c 3.90945,-7.60185 -6.33488,-6.43583 -1.7768,0.31296 l 0.73192,0.12115 z m 18.70177,0.0303 c 3.59902,-6.4535 -5.69382,-6.39798 -8.20758,-8.68711 1.50422,2.69547 1.86009,12.06908 8.20506,8.68711 z M 122.7663,221.21048 c 3.47282,-1.24679 6.84469,-10.51691 0.88334,-8.13692 3.04882,4.16942 -7.86685,7.54633 -0.88334,8.13692 z m -12.00599,-3.40973 c 0.63097,-5.37077 -9.20198,-8.30854 -5.39853,0.10348 1.62789,0.79753 3.82112,0.84549 5.39853,-0.10348 z m 27.82047,0.16152 c 6.05473,-1.68846 2.88477,-14.28502 0.30791,-5.6711 1.13573,1.93327 -6.69579,6.14811 -0.30791,5.66858 z m -6.18597,-3.33401 c 1.93579,-5.90582 5.65343,-10.15852 0.63096,-15.56967 -6.18345,-7.13242 -18.98445,-5.35057 -26.23044,-14.06292 -3.39711,-1.72885 -11.687974,-13.6894 -3.59397,-6.86489 5.36067,0.52496 13.12658,6.60745 15.77663,0.005 7.5968,7.01885 15.45609,-4.12145 22.58094,-7.88452 8.76624,-5.5723 14.2175,-15.11201 14.5677,-25.49347 7.23842,-6.66803 3.17501,-17.3389 4.83066,-26.04115 2.13266,-9.30798 14.64593,-21.528494 6.4535,-31.104005 -7.80881,-6.466119 -14.59799,-14.497029 -21.87679,-21.003531 -7.40247,-9.171693 -20.27918,-8.775448 -31.89397,-8.480156 -9.0985,7.177847 -18.020332,12.24575 -25.728188,21.180201 -5.108285,5.734201 0.98178,8.025862 4.659038,3.911977 9.65123,-1.001971 18.7573,0.239766 24.64546,7.725523 -8.16468,3.462731 -17.831048,-0.94897 -26.568638,0.979256 -5.645867,2.834291 -5.524721,-9.918754 -7.23842,-0.848015 -4.113885,10.27967 -3.038723,21.02372 -3.384491,32.53251 -2.824195,8.73001 8.240391,18.32319 0.14386,25.27389 4.131552,7.91986 3.33149,18.67401 2.786337,28.38581 -1.988799,10.74658 9.073263,16.63221 11.417925,25.61714 6.468647,0.14639 13.141717,-6.88255 17.313657,2.27652 3.35168,5.42629 9.07578,4.48237 10.31752,-1.61022 11.17311,-4.87104 4.55808,11.71069 10.39072,11.07468 z M 118.2284,169.69353 c -1.38055,-8.2303 4.60856,2.17051 0,0 z m 3.00339,-10.3781 c -2.28914,-6.94313 16.17035,-4.66156 6.63269,-11.61226 -7.11727,0.96411 -18.32824,-2.99834 -22.77527,1.83736 8.6972,4.02303 7.89967,10.43615 -0.69406,5.16886 -3.21792,-2.23866 -5.890684,-7.01632 -4.876094,-9.57803 0.429056,-1.08021 2.034224,-1.61275 4.426844,-1.69099 3.50311,-8.82087 -18.257576,-3.33149 -14.486935,-16.06434 -2.705573,-9.72694 19.211595,-9.21208 9.603273,-1.9358 -11.483545,-1.61779 0.779872,14.6207 8.548302,9.85566 8.28834,4.15931 6.84722,-12.82371 13.40168,-3.49806 4.11388,0.38615 15.20118,-6.71851 10.67591,3.29363 -12.31642,1.16854 4.0104,5.07295 8.50539,3.12958 10.48662,3.24315 10.34276,-9.03793 2.07714,-7.95015 0.79753,-11.83941 20.04699,-0.22967 10.49167,8.08391 -3.04377,6.69832 -20.08485,3.67474 -13.34111,10.93587 -3.69997,5.7342 -8.68206,9.8279 -18.18943,10.02476 z m 2.47086,-15.09266 c 8.10157,-4.28298 -13.1291,-4.01798 -4.12399,0.18676 1.37298,0.0278 2.7712,0.15144 4.12399,-0.18676 z m 32.90098,-30.72543 c -0.93382,-3.58387 -4.11388,-5.87806 -6.68569,-4.44955 -3.37692,1.87774 -10.57496,3.53339 -10.06514,-4.17446 6.52922,-5.340482 25.31175,-1.52189 18.40901,8.20758 z M 130.39844,110.181 c -3.58136,-6.13297 3.7454,-12.720238 2.39261,-2.81915 -0.0252,1.21397 -0.58049,3.60154 -2.39261,2.81915 z m -32.171598,-5.76197 c -3.702497,-7.566517 -9.845563,5.25215 -12.06908,-3.46273 4.44451,-5.620625 16.783648,-9.333217 21.692548,-0.73949 -3.02106,1.91813 -5.16634,6.13802 -9.623468,4.20222 z m 62.965168,-0.75715 c -2.25886,-9.774898 -23.42896,-1.26193 -19.99399,-11.45831 8.95716,-2.374949 27.90123,-0.686489 21.45782,12.07413 l -0.65872,-0.10096 -0.80511,-0.51739 z m 35.88166,107.86204 c 28.67605,-28.93601 37.83765,-79.84472 15.55452,-116.622348 -5.43386,-7.071845 -10.78443,-18.830491 -20.13784,-24.009444 -3.42488,11.195826 8.22777,16.985552 11.99588,26.568634 3.25073,8.664398 7.42266,17.894138 2.66267,26.901778 -3.47282,8.06877 -7.57157,15.67568 -6.84974,25.54648 -3.5965,9.44427 -15.05985,16.06182 -21.59412,24.43092 -6.79927,9.70928 -17.06126,11.36745 -27.26521,13.99226 5.63577,6.01435 11.73593,15.23905 19.94351,17.73766 8.54325,0.21453 18.94911,2.74091 25.69285,5.45658 z M 46.944608,190.28062 c 5.77206,-4.78271 15.395523,-11.65264 17.000696,-17.61147 -7.967814,-4.25522 -14.60808,-9.91875 -14.908419,-19.40593 -3.15482,-7.15513 -4.199696,-14.82008 -11.945411,-19.76179 -7.293944,-8.85874 2.289138,-18.80273 0.358388,-28.22176 C 35.385347,95.249864 41.975136,88.319355 48.696165,81.141508 53.309774,79.374809 63.915017,64.004525 53.317345,67.946788 16.572523,78.711035 -1.1474706,187.86781 42.356238,190.63144 l 2.3169,-0.0379 z M 172.58217,134.88198 c 4.05079,-1.39317 6.68822,-13.87364 0.53001,-11.12011 2.09985,3.13715 -8.10158,11.13273 -0.53001,11.11758 z M 68.639676,122.42422 c 2.422902,-5.35562 -4.845804,-15.98358 -4.081075,-4.37889 -0.863159,2.81915 0.651154,7.04156 4.081075,4.37889 z m -19.13083,-12.04131 c 7.914813,-6.42574 4.901329,-17.598853 13.616204,-24.04983 7.167752,-2.67024 3.92712,-10.466431 -1.923178,-4.063408 -9.290315,5.214287 -10.052519,13.984687 -15.531811,21.594118 0.262481,2.26894 -0.514867,9.47455 3.838785,6.51912 z m 141.959334,-0.10096 c 1.69099,-4.90638 -6.7715,-20.23123 -12.02365,-13.015525 5.237,2.612191 6.66046,12.785855 12.02365,13.015525 z M 169.76302,79.223377 C 165.3387,70.85427 154.55931,65.23869 151.43983,55.733848 146.38706,49.189489 139.43889,37.655466 128.19259,39.934509 c -0.84802,6.612503 13.94683,11.00906 16.14006,18.961731 5.66605,8.904164 14.59041,16.508543 24.40316,20.892481 l 1.02973,-0.565344 z M 182.01634,63.69409 c 4.20222,-7.531186 -14.57274,-13.472344 -6.15316,-3.467778 2.92263,0.113574 3.58892,5.247097 6.15316,3.467778 z M 73.283571,61.162663 c 5.426291,-2.892339 3.374396,-9.815277 -2.400187,-4.689325 -1.01459,1.635459 -0.328101,5.981539 2.400187,4.689325 z M 96.684766,46.155814 c 6.443404,-7.538758 -13.285579,-0.471961 0,0 z"
             id="path832"
             sodipodi:nodetypes="cccccccccccccccccccccccccccccccccccccccccccccccccccccccccccccccccccccccccccccccccccccccccccccccccccccccccccccccccccccccccccccccccccccccccccccccccccccccccccccccccccccccc"
             style="stroke-width:2.52386" />
        </g>
        <g
           style="fill:none"
           id="g848"
           transform="matrix(0.66777027,0,0,0.66777027,68.706769,219.20408)">
          <path
             fill="#000000"
             d="m 153.69206,9.2209285 0.11615,1.8473135 c 0,1.290807 0.0648,2.582833 0.1936,3.874858 0.0513,0.420121 0.21978,1.712145 0.50338,3.874856 l -4.87883,-0.04506 -0.11617,-0.495622 c -0.38721,-1.441808 -0.91674,-2.37338 -1.58755,-2.793501 -0.67081,-0.450565 -1.83245,-0.675847 -3.48489,-0.675847 -1.54883,0 -2.76175,0.63079 -3.63976,1.89237 -0.87802,1.23114 -1.45884,3.168567 -1.74244,5.812287 l -0.11616,2.252824 c 0,2.042154 0.14232,3.860243 0.42592,5.451833 0.30978,1.562363 0.72314,2.808116 1.23908,3.739689 0.54208,0.931572 1.20033,1.576975 1.97477,1.937428 1.00673,0.481007 1.87116,0.720903 2.5943,0.720903 1.08418,0 1.90988,-0.571121 2.47812,-1.712146 a 2.7418596,3.1904857 0 0 0 0.23233,-0.811016 c 0.0775,-0.300784 0.11616,-0.661234 0.11616,-1.081356 0,-2.22238 -0.56824,-3.454737 -1.70371,-3.694632 -0.25849,-0.06089 -0.4521,-0.0755 -0.58082,-0.04506 l 0.11617,-3.919912 h 10.68698 l -0.15489,3.919912 c -0.69697,0 -1.25163,0.34584 -1.665,1.036301 -0.41337,0.690459 -0.61954,1.787645 -0.61954,3.289122 v 5.632059 c 0,0.239896 0.0125,0.645403 0.0387,1.216526 0.0262,0.571122 0.0386,0.991242 0.0386,1.261581 l -1.93604,-0.04506 -3.63978,0.405509 -1.00674,0.09011 c -5.67942,0 -9.75767,-1.246969 -12.23582,-3.739688 -2.65917,-2.672945 -3.98824,-7.23948 -3.98824,-13.697168 0,-3.364624 0.54209,-6.217795 1.62628,-8.560732 1.11035,-2.342936 2.76174,-4.235308 4.95628,-5.677114 1.05801,-0.6904617 2.27198,-1.1714685 3.63976,-1.441807 1.39395,-0.2703396 3.22639,-0.4055087 5.49837,-0.4055087 0.64569,0 1.34267,0.060892 2.09093,0.1802255 0.77443,0.1205571 1.3814,0.2252832 1.8199,0.3153957 0.46464,0.060892 1.36776,0.090111 2.71046,0.090111 z m 14.85731,16.7610075 -0.15488,-1.261581 c -0.0775,-0.720905 -0.41233,-1.186082 -1.00675,-1.396751 -0.5672,-0.210669 -1.63883,-0.315395 -3.21382,-0.315395 -0.79954,0 -2.23222,0.315395 -4.29803,0.946185 l -2.2071,0.675848 0.27106,-6.352963 a 24.148248,28.099411 0 0 1 3.36871,-1.036301 19.709993,22.934964 0 0 1 3.60105,-0.360451 c 3.61465,0 6.19535,0.630791 7.74419,1.892373 1.54884,1.231137 2.32325,3.258679 2.32325,6.082625 v 11.309173 l 0.11617,0.585736 c 0.15487,0.450566 0.64569,0.796403 1.47138,1.036299 h 0.30978 c 0.12975,0 0.19359,0.03045 0.19359,0.09011 l -0.11615,3.874856 H 169.711 c -0.33488,0 -0.50337,-0.375064 -0.50337,-1.126411 0,-0.180226 0.0137,-0.435952 0.0386,-0.76596 0.0263,-0.360452 0.0387,-0.600347 0.0387,-0.720905 l 0.11616,-1.081355 c -0.38719,0.931573 -0.87696,1.667091 -1.47139,2.20777 -0.69697,0.720902 -1.35523,1.231136 -1.97476,1.531918 -0.61952,0.330009 -1.31651,0.495621 -2.09093,0.495621 -0.72209,0 -1.52266,-0.104725 -2.4007,-0.315394 -3.02022,-0.661235 -4.80139,-2.793502 -5.34349,-6.39802 a 8.7006951,10.124312 0 0 1 -0.11615,-1.66709 c 0,-0.751347 0.0775,-1.486863 0.23233,-2.207767 0.49079,-2.132268 1.36882,-3.649575 2.63302,-4.550704 1.26523,-0.901131 3.25255,-1.351695 5.96301,-1.351695 z m -3.79465,5.361721 c -1.13547,0.63079 -1.70373,1.45642 -1.70373,2.478105 0,1.141026 0.52955,1.832704 1.58758,2.072599 0.18104,0.06089 0.37465,0.09011 0.5808,0.09011 h 0.69697 c 1.0842,-0.120557 1.84606,-0.435952 2.28455,-0.946187 0.46465,-0.540677 0.69697,-1.337082 0.69697,-2.387994 v -1.667088 h -2.12966 c -0.95441,0 -1.62626,0.120556 -2.01348,0.360452 z m 11.92291,10.408045 0.15489,-3.874856 0.15486,-0.04506 0.54211,-0.180226 c 0.56826,-0.149782 0.92929,-0.375065 1.08419,-0.675847 0.18104,-0.330008 0.27104,-1.005855 0.27104,-2.027541 V 24.22473 c 0,-1.922817 -0.59336,-2.883615 -1.78116,-2.883615 l -0.42593,0.04506 0.15489,-3.063841 4.06568,-0.811016 h 3.40745 l 0.0775,1.081355 0.0775,1.171468 0.0775,1.441808 v 0.180226 l -0.15488,3.153953 0.23232,-0.675846 0.19361,-0.585734 0.65825,-1.712147 c 0.74826,-1.892373 1.43268,-3.093065 2.05221,-3.604519 0.61954,-0.511451 1.60012,-0.765958 2.9428,-0.765958 l 1.20034,0.09011 0.30977,0.04506 -0.23233,6.713415 -0.23232,-0.04506 -0.23233,-0.04506 h -0.23231 l -0.46467,-0.04506 c -0.54207,0 -0.96802,0.135169 -1.27778,0.405509 -0.30977,0.270338 -0.91674,1.050911 -1.8199,2.342936 a 9.9931367,11.628224 0 0 0 -0.65824,0.946186 c -0.20617,0.330007 -0.46464,0.76596 -0.77441,1.306638 l -0.85187,1.486864 0.0775,4.46059 -0.0387,1.17147 c 0,0.57112 0.12872,0.991242 0.3872,1.261581 0.28361,0.239894 0.80059,0.42012 1.54885,0.540678 l 0.23233,0.04506 -0.11617,3.874856 z m 12.915,-20.365527 0.15487,-3.874857 h 10.02872 l -0.15488,3.874857 h -0.23232 c -0.49081,0.06089 -0.80058,0.19484 -0.9293,0.405509 -0.12977,0.180227 -0.19362,0.555289 -0.19362,1.126412 l 0.0775,0.811015 c 0.0252,0.300783 0.0901,0.690461 0.1936,1.171469 0.12872,0.450565 0.34849,1.201911 0.65825,2.252825 l 1.00675,3.424291 0.23233,0.811017 0.42593,1.306639 c 0.0775,0.300782 0.15487,0.661233 0.23232,1.081354 0.0775,0.420122 0.11616,0.811018 0.11616,1.171469 0,-0.630791 0.0387,-1.141025 0.11616,-1.53192 0.1026,-0.420121 0.30977,-1.186083 0.61954,-2.29788 l 0.69699,-2.43305 c 0.90313,-3.184398 1.35522,-5.196109 1.35522,-6.037568 0,-0.661234 -0.33593,-1.081356 -1.00676,-1.261582 h -0.30975 l 0.15488,-3.874857 h 9.06069 l -0.15487,4.190253 c -0.20722,0 -0.43954,0.0755 -0.69698,0.225282 -0.59442,0.270338 -0.98164,0.82563 -1.16164,1.667089 l -0.23232,0.901131 c -0.59442,2.402605 -1.39394,5.121825 -2.40069,8.155221 -1.23908,3.784744 -2.84024,8.230723 -4.80139,13.336717 l -2.71047,6.623302 -6.96977,0.04506 1.58757,-3.153954 1.58755,-3.199011 2.01349,-4.145195 a 57.77789,67.23157 0 0 1 -2.74918,-6.443076 c -0.74931,-2.132268 -1.70374,-5.166881 -2.86535,-9.101408 l -0.58082,-2.072599 -0.23233,-0.811016 c -0.2072,-0.690459 -0.37465,-1.141024 -0.50337,-1.351694 -0.10356,-0.239896 -0.28465,-0.450565 -0.54209,-0.63079 a 2.4373249,2.8361225 0 0 0 -0.89058,-0.360453 z m 30.4179,20.365527 0.15488,-3.874856 0.54209,-0.09011 c 0.59338,-0.149783 0.99314,-0.450565 1.20034,-0.901129 0.20617,-0.450565 0.30977,-1.306637 0.30977,-2.568219 V 17.060754 c 0,-1.382139 -0.12977,-2.328324 -0.3872,-2.838559 -0.23233,-0.540678 -0.68443,-0.870684 -1.35522,-0.991241 l -0.46466,-0.04506 0.15488,-3.8748565 c 2.63301,0 4.96883,-0.01461 7.00849,-0.04506 l 6.00174,-0.090111 c 1.65139,0 2.99407,0.210669 4.02697,0.6307888 1.05802,0.3896787 1.98733,1.1117997 2.7879,2.1627127 0.79953,1.050912 1.31651,2.22238 1.54884,3.514404 0.15489,0.870687 0.23232,1.667089 0.23232,2.387992 0,1.622033 -0.3872,3.018786 -1.16163,4.190255 -0.67185,0.962016 -1.44626,1.636644 -2.32324,2.02754 0.25745,0.09011 0.4772,0.180226 0.65825,0.270338 0.20616,0.09011 0.42594,0.210671 0.65827,0.360454 1.26416,0.751346 2.2458,1.802258 2.94278,3.153952 0.72209,1.321252 1.08418,2.793502 1.08418,4.415534 0,0.420122 -0.0387,0.870687 -0.11616,1.351695 -0.0775,0.481009 -0.12977,0.811017 -0.15489,0.991243 a 7.6416257,8.8919565 0 0 1 -1.8586,4.010027 c -1.13651,1.441806 -2.54302,2.328324 -4.22058,2.658331 -1.65244,0.330009 -5.31837,0.495622 -10.99673,0.495622 z m 12.04219,-5.361719 1.04546,-0.09011 c 1.83245,-0.330008 2.87792,-1.412581 3.1364,-3.244066 a 4.8244173,5.6137934 0 0 0 0.11618,-1.171469 c 0,-2.613276 -1.63989,-3.919914 -4.91756,-3.919914 l -1.20036,0.09011 -0.54209,0.04506 -0.50337,0.09011 v 4.821045 c 0,1.021686 0.21871,1.847315 0.65825,2.478106 0.46466,0.600348 1.20035,0.90113 2.20709,0.90113 z m -2.86534,-15.003808 c 0,0.389678 0.27105,0.585736 0.81314,0.585736 h 1.08417 c 1.57398,0 2.68432,-0.315397 3.33001,-0.946188 0.67082,-0.661233 1.00676,-1.726758 1.00676,-3.199009 0,-0.991244 -0.30978,-1.771816 -0.92931,-2.342937 -0.59442,-0.600348 -1.45884,-0.90113 -2.5943,-0.90113 -1.08419,0 -1.81989,0.180227 -2.2071,0.540677 -0.36209,0.330009 -0.54209,0.962017 -0.54209,1.892373 z m 13.9657,20.365527 0.15488,-3.874856 0.34848,-0.09011 c 0.6457,-0.210668 1.0978,-0.511451 1.35523,-0.901129 0.2585,-0.389678 0.38722,-0.962017 0.38722,-1.712146 V 13.411179 l -0.0387,-0.585733 c -0.10261,-0.690461 -0.27105,-1.156857 -0.50336,-1.396752 -0.23233,-0.27034 -0.67084,-0.481008 -1.31653,-0.63079 l -0.3872,-0.04506 0.15488,-3.063839 4.22058,-0.8560726 h 4.2593 l -0.23232,1.6220323 0.0386,2.7033863 v 23.204086 c 0,1.141025 0.091,1.922817 0.27105,2.342937 0.18104,0.420122 0.59442,0.751348 1.23908,0.991243 l 0.69696,0.180226 -0.15488,3.874856 z m 9.64464,-20.365527 0.15489,-3.063841 4.10442,-0.811016 h 4.60778 c -0.28464,2.613276 -0.42593,5.527335 -0.42593,8.740956 v 5.63206 c 0,0.780574 0.12873,1.337082 0.38722,1.667089 0.25744,0.330009 0.72208,0.495623 1.39394,0.495623 h 0.46467 c 0.23231,-0.06089 0.50336,-0.104726 0.81313,-0.135171 0.33488,-0.03045 0.7608,-0.239895 1.27778,-0.630791 0.51593,-0.420121 1.14803,-1.111798 1.89733,-2.072597 l 0.81314,-1.081355 v -6.66836 c -0.0523,-0.780572 -0.2072,-1.32125 -0.46466,-1.622031 -0.25848,-0.300783 -0.67185,-0.450566 -1.23907,-0.450566 h -0.69696 l -0.11617,-3.063841 4.02697,-0.811016 h 4.87884 l -0.1936,3.19901 0.0387,2.703389 v 10.858611 c 0,1.261581 0.10261,2.132267 0.30978,2.613275 0.20616,0.450565 0.64465,0.751346 1.31652,0.90113 l 0.30977,0.04506 0.19361,0.04506 -0.1549,3.874856 h -7.62802 a 9.6886019,11.273862 0 0 1 -0.23233,-1.667088 18.140228,21.108351 0 0 1 -0.0775,-1.937429 c 0,-0.630792 0.0387,-1.290808 0.11616,-1.982485 l -1.47139,1.892371 -0.30978,0.360454 -0.89057,1.036298 c -1.62627,1.802259 -3.29129,2.703388 -4.995,2.703388 -0.38721,0 -0.69698,-0.01461 -0.9293,-0.04506 -0.23232,-0.03045 -0.58081,-0.120557 -1.04546,-0.270338 -1.57501,-0.481009 -2.64664,-1.290808 -3.21384,-2.43305 -0.5421,-1.141025 -0.81314,-3.153954 -0.81314,-6.037568 v -8.786013 l -0.0386,-1.441806 c 0,-0.690461 -0.12978,-1.156856 -0.38721,-1.396752 -0.23233,-0.27034 -0.69697,-0.405508 -1.39395,-0.405508 z m 42.70708,9.822312 h -12.70046 l 0.0774,0.720903 c 0.49082,2.672946 1.75501,4.010028 3.79466,4.010028 1.05801,0 2.20708,-0.450566 3.44615,-1.351694 0.20616,-0.149783 0.41337,-0.315396 0.61953,-0.495622 0.36105,-0.300784 0.64569,-0.555291 0.85186,-0.76596 l 3.44617,4.055083 -0.96802,1.081355 c -0.98059,0.991243 -1.96221,1.787646 -2.94278,2.387993 -0.9806,0.571122 -1.9099,0.931573 -2.78792,1.081356 -0.87802,0.149782 -1.45885,0.225282 -1.74245,0.225282 a 6.7677887,7.8751413 0 0 1 -0.65826,0.04506 c -2.91661,0 -5.25348,-1.050911 -7.00847,-3.153952 -1.75501,-2.103042 -2.63303,-5.001269 -2.63303,-8.6959 0,-0.870687 0.0386,-1.712146 0.11618,-2.523164 0.0775,-0.811017 0.21976,-1.697533 0.42592,-2.658332 0.46466,-2.252823 1.31651,-4.069695 2.55558,-5.451833 1.26523,-1.382138 2.86534,-2.252824 4.8014,-2.613276 a 16.051391,18.677737 0 0 1 2.63301,-0.27034 c 2.81408,0 5.00756,1.005857 6.58256,3.018785 1.57501,2.01293 2.36198,4.895326 2.36198,8.650843 0,0.870687 -0.0387,1.517309 -0.11617,1.937431 z m -5.80814,-4.640817 v -0.495621 c -0.15488,-2.402607 -1.25163,-3.604519 -3.29128,-3.604519 -0.33593,0 -0.69697,0.04506 -1.08418,0.135171 -1.39395,0.239895 -2.25837,1.366307 -2.5943,3.379235 l -0.0386,0.585734 z m 9.40291,-2.072597 -2.9428,-2.523162 a 23.180226,26.972998 0 0 0 1.74246,-2.478109 21.58325,25.114724 0 0 0 1.51011,-2.748444 c -0.15489,0.06089 -0.41338,0.09011 -0.77442,0.09011 -0.80058,0 -1.45885,-0.315396 -1.97477,-0.946184 -0.4908,-0.661237 -0.73569,-1.486865 -0.73569,-2.478108 0,-0.300782 0.0253,-0.600347 0.0775,-0.90113 0.0513,-0.330007 0.15489,-0.675847 0.30977,-1.036298 0.4385,-1.081355 1.14802,-1.8473157 2.12965,-2.29788 0.56722,-0.239895 1.09675,-0.3604521 1.58756,-0.3604521 1.05803,0 1.97477,0.4055095 2.74919,1.2165241 0.77442,0.811017 1.16163,1.816873 1.16163,3.018784 0.0252,0.300784 0.0386,0.526065 0.0386,0.675847 0,1.231139 -0.27105,2.56822 -0.81314,4.010028 -0.54209,1.441806 -1.45884,3.123508 -2.74919,5.046324 a 9.4845321,11.036402 0 0 1 -1.31651,1.712148 z m 20.9407,-6.848585 0.0387,1.667089 0.0774,1.622033 0.3485,4.730932 h -4.45292 l -0.15493,-0.811017 c -0.20615,-0.901131 -0.46465,-1.517308 -0.77441,-1.847316 -0.28361,-0.360452 -0.74827,-0.540679 -1.39397,-0.540679 a 5.1467426,5.9888582 0 0 0 -0.50338,-0.04506 c -0.46464,0 -0.82569,0.120556 -1.08417,0.360451 -0.43848,0.420122 -0.65826,0.856073 -0.65826,1.306639 0,0.481008 0.20721,0.886516 0.61955,1.216524 l 0.69696,0.405508 0.89058,0.450566 0.30978,0.135169 0.50337,0.180226 1.47138,0.540677 0.46466,0.180227 c 3.12384,1.501477 4.68524,3.784745 4.68524,6.848584 v 0.585735 a 2.679069,3.1174211 0 0 0 -0.0775,0.585735 c -0.25744,2.283266 -1.03185,4.024636 -2.32324,5.22655 -1.29035,1.171469 -3.12278,1.757202 -5.49839,1.757202 h -0.65824 c -0.18,0 -0.38722,-0.01461 -0.61954,-0.04506 a 4.2132546,4.9026318 0 0 0 -0.50338,-0.04506 l -1.12291,-0.135169 c -1.60011,-0.239895 -2.67173,-0.389678 -3.21382,-0.450563 -0.51593,-0.06089 -1.25163,-0.09011 -2.20709,-0.09011 l -0.0386,-1.982486 -0.0775,-2.02754 -0.0774,-2.387993 -0.0775,-2.387994 4.49162,0.225282 0.0386,0.450566 c 0.18104,2.523161 1.09779,3.784743 2.74918,3.784743 0.43954,0 0.87804,-0.04506 1.31651,-0.135169 0.46465,-0.09011 0.82676,-0.284952 1.08418,-0.585734 0.28466,-0.330009 0.42594,-0.765961 0.42594,-1.306639 0,-0.450564 -0.11616,-0.780572 -0.34849,-0.991242 -0.20616,-0.239895 -0.65824,-0.511451 -1.35522,-0.811016 l -2.78791,-1.126412 a 52.163357,60.69838 0 0 1 -1.51012,-0.585735 9.9941831,11.629442 0 0 1 -0.89058,-0.495621 c -2.24581,-1.47225 -3.36872,-3.499792 -3.36872,-6.082625 0,-0.389678 0.0137,-0.690459 0.0387,-0.901129 0.12975,-1.863146 0.78802,-3.499791 1.97475,-4.911156 0.77443,-0.931573 1.665,-1.53192 2.67176,-1.802259 1.03291,-0.300782 2.60791,-0.450565 4.72395,-0.450565 l 1.08419,0.09011 2.55558,0.315395 0.81314,0.13517 z"
             id="path824"
             style="stroke-width:1.12889" />
          <path
             fill="#000000"
             d="m 115.49,106.81998 0.28,-7.032837 0.77,-0.08178 c 1.12,-0.272201 1.89,-0.735994 2.31,-1.390211 0.467,-0.709125 0.7,-1.854005 0.7,-3.434641 V 60.370555 l -0.07,-0.735995 c -0.187,-1.580635 -0.513,-2.671776 -0.98,-3.271086 -0.42,-0.654217 -1.213,-1.089972 -2.38,-1.308434 l -0.63,-0.08178 0.28,-7.032835 c 2.1,0 4.947,0.02687 8.54,0.08178 3.593,0.05491 6.86,0.08178 9.8,0.08178 l 4.83,-0.327109 c 0.98,0 1.913,0.02687 2.8,0.08178 0.933,0 1.937,0.136685 3.01,0.408886 4.433,1.089973 7.91,3.516418 10.43,7.278167 2.52,3.706841 4.107,8.968617 4.76,15.78299 0.047,0.490663 0.093,1.335304 0.14,2.535092 0.047,1.14488 0.07,2.589999 0.07,4.334189 v 2.28976 c 0,9.104134 -1.89,15.782991 -5.67,20.03541 -3.78,4.25241 -9.473,6.37861 -17.08,6.37861 l -11.27,-0.49066 c -0.887,0 -2.683,0.0818 -5.39,0.24533 -2.66,0.10865 -4.41,0.16356 -5.25,0.16356 z m 23.03,-11.530581 c 3.08,0 5.203,-1.253527 6.37,-3.761749 1.213,-2.508222 1.82,-7.141482 1.82,-13.902116 l -0.21,-5.151961 c -0.42,-4.252411 -1.073,-7.278166 -1.96,-9.077264 -0.84,-1.799097 -2.217,-2.998885 -4.13,-3.598194 -0.887,-0.272201 -1.82,-0.408886 -2.8,-0.408886 -0.98,0 -1.797,0.163554 -2.45,0.490663 -2.007,1.036233 -3.01,3.025755 -3.01,5.969732 v 24.369592 c 0,2.126206 0.397,3.516417 1.19,4.170635 0.84,0.599309 2.567,0.899548 5.18,0.899548 z m 25.956,11.530581 0.28,-7.032837 0.49,-0.163555 c 1.26,-0.435755 2.077,-0.872679 2.45,-1.308434 0.374,-0.490663 0.63,-1.445119 0.77,-2.8622 l 0.07,-1.144881 V 60.615886 c 0,-1.74419 -0.21,-3.025754 -0.63,-3.843526 -0.42,-0.817771 -1.19,-1.363342 -2.31,-1.635543 l -1.12,-0.163554 0.28,-7.032835 h 20.44 l -0.21,7.032835 c -0.513,0 -0.886,0.05491 -1.12,0.163554 -1.82,0.490663 -2.73,2.28976 -2.73,5.397292 v 34.101073 c 0,1.690451 0.187,2.8622 0.56,3.516418 0.374,0.654217 1.12,1.14488 2.24,1.471988 l 1.12,0.163555 -0.21,7.032837 z m 23.42,0 0.28,-7.032837 0.77,-0.163555 c 1.167,-0.272201 1.937,-0.817771 2.31,-1.635543 0.42,-0.872679 0.63,-2.426445 0.63,-4.661297 V 59.961669 c 0,-1.74419 -0.186,-2.917108 -0.56,-3.516418 -0.326,-0.654217 -1.026,-1.063103 -2.1,-1.226657 l -0.91,-0.163554 -0.42,-0.08178 0.28,-7.032835 h 17.71 c 0.187,0.709124 0.327,1.281564 0.42,1.71732 0.14,0.382016 0.327,0.844641 0.56,1.390211 l 1.75,3.598195 10.15,24.287815 2.24,5.397292 c 0.14,0.272201 0.374,0.899548 0.7,1.880874 0.56,1.580636 0.934,2.671777 1.12,3.271086 l -0.77,-5.397292 c -0.28,-2.671776 -0.49,-5.125091 -0.63,-7.359944 -0.14,-2.28976 -0.21,-4.03395 -0.21,-5.233737 v -9.895036 l -0.14,-1.226657 c -0.233,-1.635543 -0.723,-2.917108 -1.47,-3.843526 -0.746,-0.926419 -1.656,-1.44512 -2.73,-1.553766 l 0.28,-7.032835 h 19.39 l -0.28,7.032835 -0.63,0.163554 c -1.213,0.272201 -2.006,0.627348 -2.38,1.063103 -0.326,0.435755 -0.536,1.390212 -0.63,2.8622 l -0.07,1.308435 v 44.159668 l 0.07,0.24533 c 0,0.59931 0.14,1.28156 0.42,2.04443 h -13.23 l -15.61,-33.610415 -0.98,-2.780423 -0.35,-0.735995 -0.63,-1.71732 0.21,1.962652 0.28,2.044429 0.42,4.743074 v 16.191877 c 0,2.398407 0.304,4.088857 0.91,5.070183 0.654,0.981326 1.704,1.553766 3.15,1.71732 l 0.84,0.08178 -0.28,7.032838 z m 51.379,0 0.28,-7.032837 c 0.467,0 0.817,-0.05491 1.05,-0.163555 0.887,-0.272201 1.54,-0.790902 1.96,-1.553766 0.42,-0.817771 0.63,-2.099336 0.63,-3.843526 l 0.07,-32.138421 v -1.308434 c -0.14,-1.363342 -0.35,-2.426445 -0.63,-3.189309 a 3.402,3.9743696 0 0 0 -1.19,-1.880875 c -0.56,-0.490663 -1.283,-0.735994 -2.17,-0.735994 l 0.28,-7.032835 h 36.33 l 0.49,6.542172 c 0.28,3.052624 0.7,6.215063 1.26,9.48615 h -7.91 l -0.42,-1.962652 -0.21,-0.654217 -0.21,-0.57244 c -0.373,-0.981326 -0.817,-1.580636 -1.33,-1.799098 -0.513,-0.272201 -1.633,-0.408886 -3.36,-0.408886 h -4.06 c -0.933,0 -1.61,0.108647 -2.03,0.327109 -0.42,0.218462 -0.91,0.762864 -1.47,1.635543 -0.513,0.817772 -0.77,1.989521 -0.77,3.516418 v 6.869281 h 17.57 l -0.42,11.20347 h -17.15 v 8.913709 c 0,2.234853 0.233,3.679972 0.7,4.334189 0.467,0.654218 1.633,1.17175 3.5,1.553766 l 1.05,0.08178 h 2.59 c 2.193,0 3.64,-0.327108 4.34,-0.981325 0.747,-0.709125 1.447,-2.426445 2.1,-5.151961 l 0.49,-2.126206 h 7.98 c -0.747,4.307319 -1.237,7.305036 -1.47,8.995487 -0.42,3.216173 -0.63,6.241933 -0.63,9.077263 z m 42.968,0 0.28,-7.032837 h 0.49 c 1.12,0 1.89,-0.435756 2.31,-1.308435 0.466,-0.926418 0.7,-2.561961 0.7,-4.906629 l 0.28,-32.629084 -0.07,-1.14488 c 0,-1.690451 -0.21,-2.807293 -0.63,-3.352864 -0.42,-0.599309 -1.307,-1.063103 -2.66,-1.390211 l -0.7,-0.08178 0.28,-6.951058 c 1.68,0 4.223,0.02687 7.63,0.08178 3.406,0.05491 6.253,0.08178 8.54,0.08178 l 7.49,-0.408886 h 5.81 c 3.36,0 6.206,1.580636 8.54,4.743075 2.333,3.162439 3.5,6.924188 3.5,11.285247 0,2.181114 -0.35,4.389097 -1.05,6.62395 -1.447,4.743075 -4.154,7.795699 -8.12,9.159041 l 7.91,16.927871 c 0.513,1.089972 1.096,1.854004 1.75,2.28976 0.42,0.272201 0.886,0.490663 1.4,0.654217 l 0.84,0.327109 -0.21,7.032834 h -13.23 l -0.56,-1.96265 c -0.187,-0.70913 -0.397,-1.28157 -0.63,-1.71732 l -0.21,-0.40889 -8.89,-19.054074 -4.2,0.245332 0.07,9.813258 c 0,2.234853 0.186,3.706842 0.56,4.415967 0.373,0.709124 1.26,1.226657 2.66,1.553765 l 0.56,0.08178 -0.28,7.032832 z m 19.46,-34.837069 c 2.893,0 5.11,-0.490663 6.65,-1.471989 1.54,-1.036234 2.426,-2.453315 2.66,-4.252412 0.093,-0.762864 0.14,-1.335304 0.14,-1.71732 0,-3.598195 -1.75,-5.560847 -5.25,-5.887955 a 7.436,8.6870702 0 0 0 -1.05,-0.08178 h -0.7 c -3.407,0 -5.11,1.008196 -5.11,3.025755 v 1.962652 l 0.07,8.259492 z"
             id="path828"
             style="stroke-width:1.08085" />
          <path
             fill="#ffffff"
             d="m 115.49,106.81998 -0.999,-0.0537 -0.049,1.22198 h 1.048 z m 0.28,-7.032837 -0.091,-1.163572 -0.867,0.09229 -0.041,1.017541 z m 0.77,-0.08178 0.091,1.163577 0.057,-0.006 0.056,-0.014 z m 2.31,-1.390211 -0.793,-0.71263 -0.007,0.01168 z m 0.7,-37.944599 h 1 v -0.06425 l -0.006,-0.06425 z m -0.07,-0.735995 0.994,-0.128507 -0.002,-0.01636 -10e-4,-0.01519 z m -0.98,-3.271086 -0.8,0.700947 0.028,0.04439 0.032,0.04089 z m -2.38,-1.308434 0.158,-1.153058 -0.024,-0.0047 -0.024,-0.0035 z m -0.63,-0.08178 -0.999,-0.05374 -0.043,1.093478 0.932,0.121497 z m 0.28,-7.032835 v -1.168246 h -0.955 l -0.044,1.113338 z m 8.54,0.08178 -0.013,1.168245 z m 9.8,0.08178 v 1.168245 h 0.029 l 0.029,-0.0023 z m 4.83,-0.327109 v -1.168245 h -0.029 l -0.029,0.0023 z m 2.8,0.08178 -0.053,1.167077 0.027,0.0012 h 0.026 z m 3.01,0.408886 -0.212,1.141376 0.006,0.0023 z m 10.43,7.278167 -0.788,0.719639 0.005,0.007 z m 4.76,15.78299 0.994,-0.128507 v -0.0012 z m 0.14,2.535092 -0.999,0.05257 v 0.0035 z m -5.6,26.659351 -0.694,-0.841135 z m -17.08,6.37861 -0.037,1.16708 0.018,10e-4 h 0.019 z m -11.27,-0.49066 0.037,-1.16707 -0.018,-0.001 h -0.019 z m -5.39,0.24533 0.035,1.16708 h 0.017 z m 24.15,-15.128766 -0.871,-0.574776 -0.004,0.0082 -0.004,0.0093 z m 1.82,-13.902116 h 1 v -0.02804 l -0.001,-0.02804 z m -0.21,-5.151961 0.999,-0.05608 -0.002,-0.03855 -0.004,-0.03972 z m -1.96,-9.077264 -0.878,0.55959 0.006,0.01168 0.005,0.01168 z m -4.13,-3.598194 0.259,-1.128525 -0.005,-0.0012 z m -5.25,0.08178 -0.394,-1.074786 -0.01,0.0058 z m -1.82,34.509959 -0.577,0.954456 0.027,0.0222 0.029,0.01986 z m -16.851,12.483872 0.28,-7.032841 -1.998,-0.107479 -0.28,7.03284 z m -0.628,-5.92301 0.77,-0.0818 -0.182,-2.32715 -0.77,0.08178 z m 0.883,-0.10163 c 1.217,-0.29557 2.272,-0.84581 2.906,-1.832982 l -1.6,-1.401894 c -0.206,0.321267 -0.691,0.69861 -1.714,0.947447 z m 2.899,-1.8213 c 0.67,-1.018709 0.907,-2.484857 0.907,-4.14727 h -2 c 0,1.498859 -0.23,2.32364 -0.493,2.722011 z m 0.907,-4.14727 V 60.370555 h -2 v 34.509958 z m -0.006,-34.638465 -0.07,-0.735995 -1.988,0.257014 0.07,0.735995 z m -0.073,-0.767537 c -0.192,-1.625029 -0.55,-3.021082 -1.231,-3.897266 l -1.48,1.572458 c 0.252,0.323604 0.548,1.107497 0.729,2.644907 z M 119.3,55.662527 c -0.653,-1.016373 -1.764,-1.525728 -3.022,-1.760545 l -0.316,2.306116 c 1.075,0.200938 1.551,0.56543 1.738,0.856323 z m -3.07,-1.768723 -0.63,-0.08178 -0.22,2.322471 0.63,0.08178 z m 0.259,1.133198 0.28,-7.032835 -1.998,-0.108647 -0.28,7.032835 z m -0.719,-5.918329 c 2.094,0 4.935,0.02687 8.527,0.08178 l 0.026,-2.33649 c -3.595,-0.05491 -6.447,-0.08178 -8.553,-0.08178 z m 8.527,0.08178 c 3.597,0.05491 6.868,0.08178 9.813,0.08178 v -2.33649 c -2.935,0 -6.197,-0.02687 -9.787,-0.08178 z m 9.871,0.07944 4.83,-0.327108 -0.116,-2.331817 -4.83,0.327108 z m 4.772,-0.324772 c 0.964,0 1.88,0.02687 2.747,0.08061 l 0.106,-2.334153 a 54.347,63.490613 0 0 0 -2.853,-0.08295 z m 2.8,0.08178 c 0.851,0 1.782,0.123834 2.798,0.382017 l 0.424,-2.282751 c -1.131,-0.287389 -2.206,-0.435756 -3.222,-0.435756 z m 2.804,0.383185 c 4.229,1.040906 7.49,3.334171 9.848,6.855262 l 1.576,-1.439278 c -2.682,-4.002408 -6.375,-6.560864 -11.012,-7.70224 z m 9.853,6.862271 c 2.362,3.474361 3.908,8.496646 4.549,15.187186 l 1.988,-0.260519 c -0.666,-6.940544 -2.293,-12.440641 -4.971,-16.378795 z m 4.549,15.184849 c 0.043,0.449775 0.088,1.259368 0.135,2.459156 l 1.998,-0.105142 c -0.047,-1.199788 -0.094,-2.079476 -0.145,-2.611028 z m 0.135,2.462661 c 0.046,1.119179 0.069,2.543269 0.069,4.278113 h 2 c 0,-1.754704 -0.023,-3.219683 -0.071,-4.390265 z m 0.069,4.278113 v 2.28976 h 2 v -2.28976 z m 0,2.28976 c 0,8.94058 -1.857,15.249103 -5.364,19.194267 l 1.388,1.682273 c 4.053,-4.559661 5.976,-11.607683 5.976,-20.87654 z m -5.364,19.194267 c -3.524,3.963863 -8.922,6.051513 -16.386,6.051513 V 108.07 c 7.75,0 13.738,-2.16476 17.774,-6.70573 z m -16.349,6.052683 -11.27,-0.49066 -0.074,2.33415 11.27,0.49066 z m -11.307,-0.49183 c -0.917,0 -2.74,0.0841 -5.442,0.2465 l 0.104,2.33415 c 2.711,-0.16472 4.482,-0.24416 5.338,-0.24416 z m -5.425,0.2465 c -2.664,0.10864 -4.396,0.16238 -5.215,0.16238 v 2.33649 c 0.861,0 2.629,-0.0549 5.285,-0.16472 z m 17.815,-9.03171 c 3.334,0 5.859,-1.385538 7.249,-4.371573 l -1.758,-1.116842 c -0.944,2.029242 -2.665,3.151925 -5.491,3.151925 z m 7.241,-4.355217 c 0.692,-1.429932 1.171,-3.373892 1.483,-5.754775 0.313,-2.394903 0.466,-5.306169 0.466,-8.722118 h -2 c 0,3.344686 -0.15,6.129782 -0.444,8.369308 -0.295,2.253544 -0.725,3.88091 -1.247,4.958032 z m 1.948,-14.532969 -0.21,-5.15196 -1.998,0.112151 0.21,5.151961 z m -0.216,-5.230233 c -0.422,-4.278113 -1.092,-7.507142 -2.086,-9.52587 l -1.734,1.165909 c 0.779,1.579467 1.416,4.401947 1.834,8.628658 z m -2.075,-9.502505 c -0.989,-2.11686 -2.609,-3.496557 -4.749,-4.16713 l -0.518,2.257049 c 1.687,0.528047 2.82,1.547925 3.511,3.02926 z m -4.754,-4.168298 A 11.956,13.967538 0 0 0 137.61,58.22099 v 2.33649 c 0.9,0 1.747,0.125002 2.546,0.370334 z M 137.61,58.22099 c -1.067,0 -2.028,0.176405 -2.844,0.584122 l 0.788,2.149571 c 0.491,-0.246499 1.163,-0.397203 2.056,-0.397203 z m -2.854,0.589964 c -1.173,0.606319 -2.096,1.516382 -2.715,2.745376 -0.614,1.217311 -0.891,2.669439 -0.891,4.2933 h 2 c 0,-1.320117 0.225,-2.335322 0.614,-3.107532 0.384,-0.761696 0.966,-1.363342 1.8,-1.793256 z m -3.606,7.038676 v 24.369592 h 2 V 65.849624 Z m 0,24.369592 c 0,2.191627 0.392,4.118063 1.613,5.125091 L 133.917,93.4354 C 133.551,93.133987 133.15,92.28 133.15,90.219216 Z m 1.669,5.167148 c 0.591,0.421736 1.39,0.676413 2.299,0.834127 0.929,0.161217 2.068,0.237153 3.402,0.237153 v -2.33649 c -1.279,0 -2.311,-0.0736 -3.108,-0.21262 -0.817,-0.141358 -1.302,-0.338792 -1.551,-0.515197 z m 31.657,11.43362 -0.999,-0.0537 -0.048,1.22198 h 1.047 z m 0.28,-7.032841 -0.274,-1.123852 -0.691,0.231312 -0.034,0.8388 z m 0.49,-0.163555 0.275,1.123856 0.009,-0.004 z m 2.45,-1.308434 0.707,0.825949 0.021,-0.02453 0.02,-0.0257 z m 0.77,-2.8622 0.994,0.134348 0.002,-0.0257 0.002,-0.0257 z m 0.07,-1.144881 0.998,0.08295 0.002,-0.04089 v -0.04206 z m -0.63,-37.535713 0.858,-0.600478 z m -2.31,-1.635543 0.204,-1.143712 -0.039,-0.0093 -0.041,-0.0058 z m -1.12,-0.163554 -0.999,-0.05374 -0.043,1.079459 0.918,0.13318 z m 0.28,-7.032835 v -1.168246 h -0.954 l -0.045,1.113338 z m 20.44,0 1,0.04089 0.036,-1.209134 h -1.036 z m -0.21,7.032835 v 1.168245 h 0.966 l 0.034,-1.127357 z m -1.12,0.163554 0.225,1.137871 0.075,-0.01986 0.072,-0.03388 z m -2.17,43.014783 0.832,-0.648376 z m 2.24,1.471988 -0.242,1.133206 0.058,0.0175 0.06,0.008 z m 1.12,0.163555 1,0.04089 0.032,-1.067776 -0.908,-0.132011 z m -0.21,7.032841 v 1.16824 h 0.966 l 0.034,-1.12735 z m -19.371,0.0537 0.28,-7.032842 -1.998,-0.107479 -0.28,7.032841 z m -0.444,-5.96273 0.49,-0.16355 -0.549,-2.247707 -0.49,0.163554 z m 0.499,-0.16705 a 13.105,15.309851 0 0 0 1.69,-0.71263 c 0.451,-0.240667 0.874,-0.528055 1.183,-0.890211 l -1.414,-1.651898 c -0.063,0.0736 -0.236,0.221966 -0.601,0.418231 -0.351,0.18692 -0.822,0.386689 -1.426,0.595805 z m 2.914,-1.653075 c 0.316,-0.415896 0.528,-0.948615 0.679,-1.509373 a 9.429,11.015383 0 0 0 0.337,-1.994194 l -1.987,-0.268697 c -0.066,0.663564 -0.155,1.179928 -0.258,1.563112 -0.106,0.393699 -0.209,0.582954 -0.266,0.657722 z m 1.02,-3.55497 0.07,-1.14488 -1.995,-0.165891 -0.07,1.14488 z m 0.072,-1.227826 V 60.615886 h -2 v 33.692187 z m 0,-33.692187 c 0,-1.806107 -0.21,-3.349358 -0.772,-4.445172 l -1.715,1.203292 c 0.277,0.539729 0.487,1.559607 0.487,3.24188 z m -0.772,-4.445172 c -0.614,-1.193947 -1.683,-1.865687 -2.964,-2.177609 l -0.408,2.287424 c 0.96,0.233649 1.43,0.651881 1.657,1.092309 z m -3.044,-2.192796 -1.12,-0.163554 -0.248,2.317798 1.12,0.163554 z m -0.245,1.049084 0.28,-7.032835 -1.998,-0.108647 -0.28,7.032835 z m -0.719,-5.918329 h 20.44 v -2.336491 h -20.44 z m 19.441,-1.209134 -0.21,7.032835 1.999,0.08178 0.21,-7.032835 z m 0.789,5.905479 c -0.536,0 -1.071,0.05023 -1.491,0.247668 l 0.743,2.168262 h 0.003 a 0.51,0.59580497 0 0 1 0.051,-0.01635 1.57,1.8341447 0 0 1 0.153,-0.03154 c 0.134,-0.01869 0.312,-0.03154 0.541,-0.03154 z m -1.345,0.193928 c -1.163,0.31309 -2.082,1.072449 -2.683,2.260554 -0.58,1.147217 -0.822,2.606355 -0.822,4.274609 h 2 c 0,-1.439278 0.214,-2.433454 0.544,-3.085335 0.309,-0.610992 0.755,-0.996513 1.411,-1.174086 z m -3.505,6.535163 v 32.874416 h 2 V 60.534109 Z m 0,32.874416 v 1.226657 h 2 v -1.226657 z m 0,1.226657 c 0,1.709142 0.176,3.196318 0.728,4.164794 l 1.664,-1.296752 c -0.194,-0.33996 -0.392,-1.197452 -0.392,-2.868042 z m 0.728,4.164794 c 0.581,1.017541 1.627,1.606338 2.83,1.956818 l 0.485,-2.266403 c -1.038,-0.303744 -1.485,-0.696274 -1.651,-0.987167 z m 2.948,1.982518 1.12,0.16355 0.248,-2.3178 -1.12,-0.163555 z m 0.245,-1.03624 -0.21,7.03284 1.999,0.0818 0.21,-7.032843 z m 0.789,5.90548 h -20.37 v 2.33649 h 20.37 z m 3.05,1.16825 -0.999,-0.0537 -0.048,1.22198 h 1.047 z m 0.28,-7.032841 -0.179,-1.149553 -0.783,0.167059 -0.037,0.928754 z m 0.77,-0.163555 0.179,1.149556 0.009,-0.002 0.008,-10e-4 z m 2.31,-1.635543 -0.871,-0.57244 -0.006,0.01168 -0.005,0.01168 z m 0.07,-41.542794 -0.864,0.588796 0.026,0.05023 0.03,0.0479 z m -2.1,-1.226657 -0.152,1.154226 0.012,0.0023 0.011,0.0023 z m -0.91,-0.163554 -0.164,1.151889 0.012,0.0023 z m -0.42,-0.08178 -0.999,-0.05374 -0.041,1.035066 0.876,0.170563 z m 0.28,-7.032835 v -1.168246 h -0.954 l -0.045,1.113338 z m 17.71,0 0.956,-0.343465 -0.217,-0.824781 h -0.739 z m 0.42,1.71732 -0.97,0.282715 0.02,0.09112 0.031,0.08645 z m 0.56,1.390211 -0.894,0.522206 0.012,0.02804 0.013,0.02687 z m 1.75,3.598195 0.899,-0.512859 -0.014,-0.03271 -0.015,-0.03154 z m 10.15,24.287815 0.9,-0.509355 -0.001,-0.0035 z m 2.24,5.397292 -0.9,0.509355 0.02,0.04673 0.023,0.04439 z m 0.7,1.880874 -0.932,0.422905 0.004,0.01168 0.004,0.01168 z m 1.12,3.271086 -0.94,0.39954 1.927,-0.591132 z m -0.77,-5.397292 -0.992,0.141358 0.002,0.0257 0.004,0.02453 z m -0.63,-7.359944 -0.997,0.08295 v 0.0023 z m -0.21,-15.128773 h 1 v -0.0771 l -0.009,-0.0771 z m -0.14,-1.226657 0.991,-0.154209 -0.002,-0.01869 -0.002,-0.01869 z m -1.47,-3.843526 -0.728,0.800247 z m -2.73,-1.553766 -0.999,-0.05374 -0.044,1.120347 0.957,0.09696 z m 0.28,-7.032835 v -1.168246 h -0.954 l -0.045,1.113338 z m 19.39,0 0.999,0.05491 0.049,-1.223153 h -1.048 z m -0.28,7.032835 0.217,1.140207 0.747,-0.193929 0.035,-0.892539 z m -0.63,0.163554 0.189,1.147217 0.014,-0.0035 0.014,-0.0035 z m -2.38,1.063103 -0.707,-0.825949 -0.023,0.02687 -0.022,0.03037 z m -0.63,2.8622 -0.997,-0.08645 -0.001,0.01402 z m -0.07,1.308435 -0.998,-0.07243 -0.002,0.03505 v 0.03738 z m 0,44.159662 h -1 v 0.18925 l 0.052,0.17991 z m 0.07,0.24533 h 1 v -0.18926 l -0.051,-0.17991 z m 0.42,2.04443 v 1.16824 h 1.517 l -0.598,-1.62853 z m -13.23,0 -0.879,0.55725 0.284,0.61099 h 0.595 z m -15.61,-33.610409 -0.924,0.443933 0.02,0.05841 0.025,0.05491 z m -0.98,-2.780423 0.925,-0.443933 -0.022,-0.06425 -0.029,-0.05841 z m -0.35,-0.735995 -0.919,0.460289 0.02,0.05491 0.025,0.05257 z m -0.63,-1.71732 0.919,-0.460288 -1.911,0.60515 z m 0.21,1.962652 -0.992,0.144862 0.002,0.01986 0.003,0.01986 z m 0.28,2.044429 0.995,-0.12033 -0.003,-0.03271 -0.004,-0.03154 z m 0.42,4.743074 h 1 v -0.06075 l -0.005,-0.05841 z m 0.91,21.26206 -0.81,0.683424 0.01,0.01752 0.011,0.01636 z m 3.15,1.71732 -0.096,1.162402 0.013,0.002 z m 0.84,0.08178 0.999,0.05374 0.045,-1.123852 -0.961,-0.09346 z m -0.28,7.032832 v 1.16824 h 0.955 l 0.044,-1.1145 z m -18.881,0.0537 0.28,-7.032833 -1.998,-0.107479 -0.28,7.032842 z m -0.54,-5.93702 0.77,-0.16356 -0.358,-2.2991 -0.77,0.163555 z m 0.787,-0.16706 c 1.311,-0.30725 2.424,-0.976651 2.997,-2.231346 l -1.765,-1.100487 c -0.174,0.380848 -0.601,0.801416 -1.624,1.039738 z m 2.986,-2.207981 c 0.558,-1.161236 0.758,-2.989539 0.758,-5.234906 h -2 c 0,2.225506 -0.22,3.504735 -0.501,4.088857 l 1.743,1.14488 z m 0.758,-5.234906 V 59.961669 h -2 v 33.365079 z m 0,-33.365079 c 0,-0.914736 -0.048,-1.720825 -0.157,-2.400744 -0.105,-0.665899 -0.282,-1.302593 -0.594,-1.802602 l -1.617,1.373857 c 0.061,0.0993 0.164,0.348137 0.245,0.855155 0.078,0.491831 0.123,1.14488 0.123,1.974334 z m -0.696,-4.105213 c -0.563,-1.127357 -1.657,-1.616851 -2.834,-1.796761 l -0.259,2.317798 c 0.969,0.147199 1.275,0.475476 1.365,0.656554 z m -2.812,-1.792088 -0.91,-0.163554 -0.304,2.308452 0.91,0.163554 z m -0.897,-0.161218 -0.42,-0.08178 -0.329,2.303779 0.42,0.08178 z m 0.414,1.123852 0.28,-7.032835 -1.998,-0.108647 -0.28,7.032835 z m -0.719,-5.918329 h 17.71 v -2.336491 h -17.71 z m 16.754,-0.824781 c 0.185,0.700947 0.319,1.250022 0.406,1.657739 l 1.94,-0.567767 a 30.261,35.352263 0 0 0 -0.434,-1.776901 z m 0.457,1.834144 c 0.15,0.408886 0.346,0.894876 0.585,1.452129 l 1.789,-1.044411 a 21.769,25.431526 0 0 1 -0.536,-1.328295 z m 0.61,1.507036 1.75,3.598195 1.739,-1.154226 -1.75,-3.598195 z m 1.721,3.533942 10.15,24.287814 1.797,-1.025719 -10.15,-24.287814 z m 10.148,24.284309 2.24,5.397293 1.8,-1.01871 -2.24,-5.397292 z m 2.283,5.488416 c 0.088,0.171732 0.291,0.700947 0.625,1.703301 l 1.864,-0.84581 c -0.319,-0.959129 -0.582,-1.685777 -0.774,-2.059616 l -1.715,1.203293 z m 0.633,1.726666 a 80.94,94.557754 0 0 1 1.104,3.224356 l 1.88,-0.799079 a 81.877,95.6524 0 0 0 -1.136,-3.317816 z m 3.031,2.633224 -0.77,-5.397292 -1.973,0.383184 0.77,5.397293 z m -0.764,-5.348226 a 128.018,149.55639 0 0 1 -0.625,-7.302699 l -1.995,0.170563 c 0.141,2.25705 0.353,4.730225 0.635,7.417188 z m -0.625,-7.301531 c -0.14,-2.281583 -0.208,-3.993062 -0.208,-5.149624 h -2 c 0,1.241844 0.072,3.019913 0.213,5.316683 l 1.995,-0.165891 z m -0.208,-5.149624 v -9.895036 h -2 v 9.895036 z m -0.009,-10.049244 -0.14,-1.226658 -1.982,0.308417 0.14,1.226657 z m -0.144,-1.264041 c -0.257,-1.795593 -0.81,-3.313143 -1.729,-4.452182 l -1.456,1.600495 c 0.575,0.714966 1.001,1.759378 1.212,3.236039 l 1.973,-0.385521 z m -1.729,-4.452182 c -0.913,-1.133198 -2.05,-1.782742 -3.371,-1.91709 l -0.173,2.327144 c 0.825,0.08411 1.508,0.470803 2.088,1.19161 z m -2.459,-0.699779 0.28,-7.032835 -1.998,-0.108647 -0.28,7.032835 z m -0.719,-5.918329 h 19.39 v -2.336491 h -19.39 z m 18.391,-1.223153 -0.28,7.032835 1.998,0.108647 0.28,-7.032835 z m 0.502,5.946367 -0.63,0.163555 0.434,2.281582 0.63,-0.163554 -0.434,-2.280414 z m -0.602,0.157713 c -0.64,0.143695 -1.203,0.315427 -1.673,0.525711 -0.457,0.204443 -0.896,0.475475 -1.225,0.85866 l 1.414,1.651898 c 0.045,-0.05257 0.189,-0.177573 0.525,-0.327108 a 8.164,9.5375525 0 0 1 1.337,-0.414727 z m -2.943,1.440447 c -0.315,0.420568 -0.499,0.975484 -0.619,1.522223 -0.125,0.567767 -0.207,1.250022 -0.256,2.0234 l 1.995,0.1729 c 0.044,-0.697442 0.113,-1.228993 0.198,-1.615682 0.042,-0.190424 0.085,-0.330614 0.123,-0.428746 0.038,-0.0993 0.064,-0.134349 0.064,-0.134349 l -1.505,-1.538578 z m -0.876,3.559642 -0.07,1.308435 1.996,0.144862 0.07,-1.308434 z m -0.072,1.380866 v 38.680593 h 2 V 60.370555 Z m 0,38.680593 v 3.925297 h 2 v -3.925297 z m 0,3.925297 v 1.55377 h 2 v -1.55377 z m 0.052,1.92293 0.07,0.24533 1.897,-0.73833 -0.07,-0.24533 z m 0.018,-0.12383 c 0,0.80609 0.187,1.64839 0.501,2.50472 l 1.838,-0.92058 c -0.245,-0.67057 -0.339,-1.19161 -0.339,-1.58414 z m 1.42,0.87618 h -13.23 v 2.33649 h 13.23 z m -12.351,0.61099 -15.61,-33.6104 -1.758,1.114506 15.61,33.610404 z m -15.564,-33.498249 -0.98,-2.780423 -1.849,0.890203 0.98,2.780423 z m -1.031,-2.903088 -0.35,-0.735995 -1.748,1.135534 0.35,0.735995 z m -0.305,-0.628516 -0.63,-1.71732 -1.838,0.920577 0.63,1.71732 z m -2.541,-1.11217 0.21,1.962652 1.985,-0.289725 -0.21,-1.962651 z m 0.215,2.002372 0.28,2.044429 1.975,-0.369165 -0.28,-2.044429 z m 0.273,1.980176 0.42,4.743075 1.989,-0.240659 -0.42,-4.743075 z m 0.414,4.622745 v 14.80174 h 2 V 76.725985 Z m 0,14.801665 v 1.390212 h 2 V 91.52765 Z m 0,1.390212 c 0,2.441632 0.297,4.456855 1.1,5.753607 l 1.621,-1.366847 c -0.411,-0.6659 -0.721,-2.032746 -0.721,-4.38676 z m 1.121,5.787486 c 0.877,1.316607 2.226,1.980167 3.843,2.162417 l 0.193,-2.324803 c -1.277,-0.144863 -2.027,-0.62618 -2.457,-1.272219 z m 3.856,2.164757 0.84,0.0818 0.166,-2.328304 -0.84,-0.08178 z m -0.076,-1.136702 -0.28,7.032832 1.998,0.10748 0.28,-7.032833 z m 0.719,5.918322 h -19.88 v 2.33649 h 19.88 z m 31.499,1.16825 -0.999,-0.0537 -0.048,1.22198 h 1.047 z m 0.28,-7.032832 v -1.168245 h -0.954 l -0.045,1.114505 z m 1.05,-0.163555 -0.254,-1.129693 -0.06,0.01869 -0.057,0.02687 z m 1.96,-1.553766 0.841,0.632021 0.009,-0.01519 0.008,-0.01636 z m 0.63,-3.843526 -1,-0.0023 v 0.0023 z m 0.07,-32.138421 1,0.0035 v -0.0035 z m 0,-1.308434 h 1 v -0.0701 l -0.007,-0.07009 z m -0.63,-3.189309 -0.942,0.39253 0.011,0.03505 0.012,0.03271 z m -1.19,-1.880875 -0.6,0.934596 z m -2.17,-0.735994 -0.999,-0.05374 -0.048,1.221985 h 1.047 z m 0.28,-7.032835 v -1.168246 h -0.954 l -0.045,1.113338 z m 36.33,0 0.996,-0.101638 -0.08,-1.066608 h -0.916 z m 0.49,6.542172 -0.996,0.101637 10e-4,0.01168 10e-4,0.01168 z m 1.26,9.48615 v 1.168245 h 1.22 l -0.239,-1.397221 z m -7.91,0 -0.97,0.283883 0.189,0.884362 h 0.781 z m -0.42,-1.962652 0.97,-0.283884 -0.014,-0.06425 -0.02,-0.06192 z m -0.21,-0.654217 0.936,-0.410054 -0.008,-0.0257 -0.009,-0.02336 z m -0.21,-0.57244 0.919,-0.460289 -0.005,-0.01402 z m -1.33,-1.799098 -0.414,1.063103 0.036,0.01986 0.036,0.01519 z m -10.92,1.553766 -0.8,-0.700947 -0.006,0.01051 z m -0.77,10.385699 h -1 v 1.168245 h 1 z m 17.57,0 0.999,0.0514 0.046,-1.219647 h -1.045 z m -0.42,11.20347 v 1.168245 h 0.957 l 0.042,-1.116843 z m -17.15,0 v -1.168245 h -1 v 1.168245 z m 0.7,13.247898 -0.768,0.747677 z m 3.5,1.553766 -0.172,1.150722 0.052,0.01168 0.054,0.0035 z m 1.05,0.08178 -0.066,1.165909 0.033,0.0023 h 0.033 z m 6.93,-0.981325 0.625,0.911231 0.006,-0.0047 z m 2.1,-5.151961 0.963,0.315426 0.003,-0.01168 z m 0.49,-2.126206 V 87.57891 h -0.766 l -0.199,0.864501 z m 7.98,0 0.98,0.231312 0.243,-1.399557 h -1.223 z m -1.47,8.995487 -0.987,-0.186919 -0.001,0.01168 z m -0.63,9.077268 v 1.16824 h 1 v -1.16824 z m -36.241,0.0537 0.28,-7.03284 -1.998,-0.107479 -0.28,7.032839 z m -0.719,-5.91833 c 0.504,0 1.008,-0.0537 1.422,-0.24767 l -0.743,-2.168265 c -0.054,0.02336 -0.249,0.07944 -0.679,0.07944 z m 1.305,-0.20211 c 1.082,-0.33295 1.967,-0.99885 2.546,-2.051439 l -1.682,-1.264041 c -0.261,0.474307 -0.682,0.843473 -1.373,1.056093 z m 2.563,-2.082982 c 0.562,-1.094645 0.772,-2.637897 0.772,-4.444004 h -2 c 0,1.682273 -0.21,2.702151 -0.487,3.243048 z m 0.772,-4.441667 0.07,-32.138421 -2,-0.0058 -0.07,32.138421 z m 0.07,-32.140758 v -1.308434 h -2 v 1.308434 z m -0.007,-1.448624 c -0.145,-1.410072 -0.37,-2.599345 -0.704,-3.509408 l -1.838,0.920577 c 0.226,0.615665 0.421,1.553766 0.556,2.868042 l 1.986,-0.278043 z m -0.681,-3.44165 a 4.4,5.1402782 0 0 0 -1.532,-2.42294 l -1.2,1.869192 c 0.405,0.353978 0.682,0.794407 0.848,1.338809 z m -1.532,-2.42294 c -0.774,-0.677582 -1.725,-0.969643 -2.77,-0.969643 v 2.33649 c 0.729,0 1.225,0.198601 1.57,0.502345 z m -1.771,0.252341 0.28,-7.032835 -1.998,-0.108647 -0.28,7.032835 z m -0.719,-5.918329 h 36.33 V 46.77207 h -36.33 z m 35.334,-1.066608 0.49,6.542172 1.992,-0.203275 -0.49,-6.542172 z m 0.492,6.565537 a 91.356,106.72619 0 0 0 1.274,9.591292 l 1.961,-0.45912 a 89.774,104.87803 0 0 1 -1.247,-9.381008 l -1.988,0.247668 z m 2.254,8.192903 h -7.91 v 2.33649 h 7.91 z m -6.94,0.885529 -0.42,-1.962651 -1.94,0.56543 0.42,1.962652 z m -0.454,-2.091158 -0.21,-0.654218 -1.872,0.821277 0.21,0.654217 1.872,-0.820108 z m -0.227,-0.703284 -0.21,-0.57244 -1.838,0.920577 0.21,0.57244 z m -0.215,-0.586459 c -0.412,-1.084131 -1.006,-2.042092 -1.902,-2.42294 l -0.684,2.196301 c 0.131,0.05491 0.424,0.296734 0.758,1.175254 z m -1.83,-2.387893 c -0.41,-0.218462 -0.953,-0.334118 -1.535,-0.405381 A 22.267,26.013312 0 0 0 264.195,57.4031 v 2.33649 c 0.845,0 1.519,0.03388 2.032,0.0958 0.537,0.06542 0.811,0.154208 0.914,0.207947 z M 264.195,57.4031 h -4.06 v 2.33649 h 4.06 z m -4.06,0 c -0.958,0 -1.814,0.105142 -2.436,0.427578 l 0.812,2.135552 c 0.218,-0.11332 0.716,-0.22664 1.624,-0.22664 z m -2.436,0.427578 c -0.668,0.346969 -1.287,1.102823 -1.864,2.002372 l 1.6,1.401894 c 0.543,-0.845809 0.904,-1.179927 1.076,-1.268714 z m -1.87,2.012886 c -0.689,1.095814 -0.964,2.550279 -0.964,4.206851 h 2 c 0,-1.397221 0.238,-2.286256 0.577,-2.825985 z m -0.964,4.206851 v 6.869281 h 2 v -6.869281 z m 1,8.037526 h 17.57 v -2.33649 h -17.57 z m 16.571,-1.219648 -0.42,11.20347 1.998,0.102805 0.42,-11.20347 z m 0.579,10.086628 h -17.15 v 2.33649 h 17.15 z m -18.15,1.168245 v 8.913709 h 2 v -8.913709 z m 0,8.913709 c 0,1.156563 0.06,2.156581 0.192,2.976689 0.129,0.794406 0.345,1.551429 0.74,2.105177 l 1.536,-1.495353 c -0.071,-0.10047 -0.205,-0.392531 -0.31,-1.043243 -0.101,-0.623843 -0.158,-1.46498 -0.158,-2.54327 z m 0.932,5.081866 c 0.396,0.554917 0.994,0.938101 1.638,1.223153 0.665,0.295566 1.491,0.536224 2.458,0.733658 l 0.345,-2.301443 c -0.9,-0.183415 -1.591,-0.393699 -2.093,-0.615665 -0.522,-0.232481 -0.741,-0.436924 -0.812,-0.535056 z m 4.202,1.971998 1.05,0.08178 0.133,-2.331817 -1.05,-0.08178 z m 1.116,0.08411 h 2.59 v -2.33649 h -2.59 z m 2.59,0 c 1.133,0 2.112,-0.08411 2.92,-0.266359 0.792,-0.178742 1.512,-0.47314 2.045,-0.970812 l -1.25,-1.824799 c -0.167,0.156545 -0.52,0.35281 -1.175,0.502346 -0.638,0.143694 -1.479,0.223134 -2.54,0.223134 z m 4.971,-1.243012 c 0.542,-0.514028 0.982,-1.302593 1.357,-2.224339 0.383,-0.940437 0.74,-2.120365 1.075,-3.518754 l -1.926,-0.630852 c -0.318,1.327126 -0.638,2.369201 -0.955,3.146084 -0.324,0.795575 -0.608,1.220816 -0.812,1.413576 z m 2.435,-5.754775 0.49,-2.126206 -1.931,-0.607488 -0.49,2.126206 z m -0.476,-1.261705 h 7.98 v -2.33649 h -7.98 z m 7,-1.399558 c -0.746,4.304983 -1.24,7.324897 -1.477,9.041049 l 1.974,0.371502 c 0.23,-1.663581 0.716,-4.641438 1.463,-8.948757 z m -1.478,9.050395 c -0.427,3.266406 -0.642,6.351746 -0.642,9.253666 h 2 c 0,-2.76757 0.205,-5.73492 0.619,-8.902024 l -1.977,-0.350474 z m 0.358,8.085416 h -37.24 v 2.33649 h 37.24 z m 5.728,1.16825 -0.999,-0.0537 -0.049,1.22198 h 1.048 z m 0.28,-7.032832 v -1.168245 h -0.955 l -0.044,1.114505 z m 2.8,-1.308435 -0.862,-0.5923 -0.005,0.0093 -0.005,0.01051 z m 0.7,-4.906629 -1,-0.01168 v 0.01168 z m 0.28,-32.629084 1,0.01168 v -0.04673 l -0.003,-0.0479 z m -0.07,-1.14488 h -1 v 0.04206 l 0.002,0.04089 z m -0.63,-3.352864 -0.774,0.7395 0.015,0.02103 0.015,0.02103 z m -2.66,-1.390211 0.202,-1.14488 -0.051,-0.01168 -0.052,-0.0058 z m -0.7,-0.08178 -0.999,-0.05491 -0.045,1.107496 0.944,0.109816 z m 0.28,-6.951058 V 46.85396 h -0.954 l -0.045,1.113337 z m 7.63,0.08178 0.013,-1.168245 z m 8.54,0.08178 v 1.168245 h 0.023 l 0.023,-0.0012 z m 7.49,-0.408886 v -1.168245 h -0.024 l -0.023,0.0012 z m 16.8,22.652272 -0.94,-0.401877 -0.002,0.0093 z m -8.12,9.159041 -0.283,-1.121515 -1.189,0.408885 0.594,1.273387 z m 7.91,16.927871 -0.878,0.560757 0.001,0.0023 z m 1.75,2.28976 -0.497,1.014036 0.011,0.007 z m 1.4,0.654217 0.316,-1.108665 -0.027,-0.0093 -0.026,-0.0093 z m 0.84,0.327109 0.999,0.04089 0.026,-0.872679 -0.709,-0.276874 z m -0.21,7.032839 v 1.16824 h 0.965 l 0.034,-1.12735 z m -13.23,0 -0.949,0.36916 0.228,0.79908 h 0.721 z m -0.56,-1.96265 -0.956,0.34346 0.003,0.0129 0.004,0.0129 z m -0.63,-1.71732 -0.858,0.60047 0.005,0.009 0.005,0.009 z m -0.21,-0.40889 -0.878,0.55959 0.009,0.021 0.011,0.0199 z m -8.89,-19.054079 0.878,-0.559589 -0.301,-0.643703 -0.627,0.03622 z m -4.2,0.245332 -0.05,-1.167077 -0.958,0.05608 0.008,1.121515 z m 0.07,9.813258 h 1 v -0.0093 z m 0.56,4.415967 0.851,-0.612161 z m 2.66,1.553765 -0.197,1.146047 0.036,0.008 0.037,0.005 z m 0.56,0.08178 0.999,0.05374 0.042,-1.079459 -0.917,-0.133179 z m -0.28,7.032837 v 1.16824 h 0.954 l 0.045,-1.1145 z m -0.7,-34.837069 -0.054,1.165908 0.027,0.0023 h 0.027 z m 6.65,-1.471989 0.478,1.025719 0.011,-0.007 0.01,-0.0058 z m 2.66,-4.252412 0.988,0.175237 0.002,-0.01051 z m -5.11,-7.605275 -0.142,1.156562 0.031,0.0047 0.031,0.0035 z m -6.86,4.906629 h -1 v 0.01168 z m 0.07,8.259492 -1,0.01168 0.009,1.095814 0.937,0.05841 z m -15.871,35.054364 0.279,-7.032838 -1.997,-0.107479 -0.28,7.032837 z m -0.719,-5.91833 h 0.49 v -2.336492 h -0.49 z m 0.49,0 c 1.353,0 2.529,-0.55025 3.181,-1.904242 l -1.743,-1.14488 c -0.188,0.390194 -0.552,0.71263 -1.438,0.71263 z m 3.172,-1.884382 c 0.614,-1.220816 0.838,-3.139074 0.838,-5.498929 h -2 c 0,2.328312 -0.243,3.679972 -0.562,4.314329 z m 0.838,-5.487247 0.28,-32.629084 -2,-0.02336 -0.28,32.629085 z m 0.277,-32.723712 -0.07,-1.14488 -1.995,0.165891 0.07,1.14488 z m -0.067,-1.061934 c 0,-0.893708 -0.055,-1.685778 -0.181,-2.356351 -0.123,-0.655385 -0.333,-1.293247 -0.706,-1.778068 l -1.487,1.563111 c 0.047,0.06075 0.153,0.25351 0.239,0.716135 0.084,0.447437 0.135,1.05843 0.135,1.855173 z m -0.856,-4.092363 c -0.657,-0.9381 -1.855,-1.461474 -3.232,-1.794424 l -0.405,2.287424 c 1.33,0.321267 1.905,0.724312 2.089,0.985999 z m -3.335,-1.813116 -0.7,-0.08178 -0.199,2.324808 0.7,0.08178 z m 0.199,1.135534 0.28,-6.951058 -1.997,-0.109815 -0.28,6.951058 z m -0.718,-5.83772 c 1.672,0 4.21,0.02687 7.616,0.08178 l 0.027,-2.33649 c -3.407,-0.05491 -5.956,-0.08178 -7.643,-0.08178 z m 7.616,0.08178 c 3.409,0.05491 6.261,0.08178 8.554,0.08178 v -2.33649 c -2.281,0 -5.123,-0.02687 -8.527,-0.08178 z m 8.6,0.08061 7.49,-0.408886 -0.093,-2.334154 -7.49,0.408886 z m 7.444,-0.407718 h 5.81 v -2.33649 h -5.81 z m 5.81,0 c 3.048,0 5.625,1.413577 7.782,4.337694 l 1.515,-1.525728 c -2.51,-3.400761 -5.626,-5.148456 -9.297,-5.148456 z m 7.782,4.337694 c 2.17,2.939305 3.258,6.427684 3.258,10.522383 h 2 c 0,-4.627418 -1.246,-8.663705 -3.743,-12.048111 z m 3.258,10.522383 c 0,2.032747 -0.326,4.104045 -0.99,6.222073 l 1.879,0.803753 c 0.736,-2.352846 1.111,-4.696345 1.111,-7.025826 z m -0.992,6.231419 c -1.345,4.408957 -3.816,7.178866 -7.461,8.431225 l 0.565,2.240694 c 4.289,-1.473157 7.231,-4.809665 8.78,-9.886858 z m -8.056,10.111161 7.91,16.927871 1.755,-1.119179 -7.91,-16.927871 z m 7.911,16.931376 c 0.567,1.203292 1.264,2.162421 2.13,2.740702 l 0.993,-2.028073 c -0.441,-0.294398 -0.911,-0.862165 -1.37,-1.838818 z m 2.141,2.747712 c 0.497,0.322433 1.04,0.574773 1.622,0.760523 l 0.527,-2.254708 a 5.273,6.1601561 0 0 1 -1.178,-0.549076 z m 1.569,0.741833 0.84,0.32711 0.633,-2.217328 -0.84,-0.327109 z m 0.157,-0.822442 -0.21,7.032832 1.999,0.0818 0.21,-7.032835 z m 0.79,5.905472 h -13.23 v 2.33649 h 13.23 z m -12.282,0.79908 -0.14,-0.49066 -0.14,-0.49066 -0.035,-0.12267 -0.035,-0.12266 -0.035,-0.12267 -0.035,-0.12267 -0.035,-0.12266 -0.035,-0.12267 -0.035,-0.12266 -0.035,-0.12267 -1.897,0.73833 0.14,0.49066 0.14,0.49067 0.035,0.12266 0.035,0.12267 0.035,0.12266 0.035,0.12267 0.035,0.12267 0.035,0.12266 0.035,0.12267 0.035,0.12266 z m -0.553,-1.93695 c -0.202,-0.76753 -0.443,-1.44278 -0.737,-1.99302 l -1.696,1.23834 c 0.172,0.32126 0.35,0.7909 0.522,1.44161 z m -0.728,-1.97433 -0.21,-0.40889 -1.715,1.20096 0.21,0.40888 z m -0.189,-0.368 -8.89,-19.054072 -1.756,1.119179 8.89,19.054073 z m -9.818,-19.661559 -4.2,0.245331 0.1,2.334154 4.2,-0.245332 z m -5.15,1.421754 0.07,9.813258 2,-0.01869 -0.07,-9.813258 z m 0.07,9.803912 c 0,1.149553 0.047,2.137889 0.15,2.950987 0.1,0.788566 0.265,1.521055 0.558,2.07714 l 1.703,-1.224321 c -0.08,-0.151872 -0.196,-0.511691 -0.282,-1.195115 -0.084,-0.657721 -0.129,-1.523391 -0.129,-2.608691 z m 0.708,5.028127 c 0.61,1.158899 1.883,1.752366 3.315,2.087646 l 0.393,-2.292089 c -1.368,-0.318931 -1.869,-0.761696 -2.005,-1.019878 z m 3.388,2.100496 0.56,0.0818 0.248,-2.317792 -0.56,-0.08178 z m -0.315,-1.130853 -0.28,7.032833 1.998,0.10748 0.28,-7.032834 z m 0.719,5.918323 h -20.16 v 2.33649 h 20.16 z m -0.7,-32.50057 c 2.964,0 5.375,-0.497673 7.128,-1.614515 l -0.957,-2.051438 c -1.327,0.845809 -3.349,1.329463 -6.171,1.329463 z m 7.149,-1.627366 c 1.761,-1.185768 2.864,-2.886733 3.149,-5.090043 l -1.977,-0.350474 c -0.181,1.394885 -0.852,2.529251 -2.17,3.41478 z m 3.151,-5.100558 c 0.094,-0.774546 0.15,-1.413576 0.15,-1.882042 h -2 c 0,0.295566 -0.038,0.800247 -0.13,1.552597 z m 0.15,-1.882042 c 0,-2.026906 -0.499,-3.755908 -1.62,-5.01294 -1.102,-1.236003 -2.671,-1.863351 -4.551,-2.039756 l -0.159,2.329481 c 1.62,0.151872 2.676,0.668236 3.325,1.394884 0.628,0.70562 1.005,1.757041 1.005,3.328331 z m -6.109,-7.044518 a 8.44,9.8599882 0 0 0 -1.191,-0.09346 v 2.33649 c 0.332,0 0.634,0.02336 0.908,0.0701 z m -1.191,-0.09346 h -0.7 v 2.33649 h 0.7 z m -0.7,0 c -1.756,0 -3.223,0.25351 -4.285,0.882025 -0.546,0.323604 -1.013,0.762864 -1.342,1.345819 a 3.014,3.5210906 0 0 0 -0.483,1.966156 h 2 c 0,-0.303744 0.061,-0.515196 0.154,-0.682255 0.098,-0.1729 0.269,-0.363324 0.575,-0.544402 0.641,-0.37968 1.729,-0.630853 3.381,-0.630853 z m -6.11,4.194 v 1.962652 h 2 v -1.962652 z m 0,1.974334 0.07,8.259493 2,-0.02336 -0.07,-8.259493 z m 1.016,9.413719 2.59,0.163554 0.108,-2.331817 -2.59,-0.163554 z"
             id="path830"
             style="stroke:#ffffff;stroke-width:0.325039;stroke-miterlimit:4;stroke-dasharray:none;stroke-opacity:1" />
        </g>
      </g>
    </g>
  </g>
</svg>
