<?xml version="1.0" encoding="UTF-8" standalone="no"?>
<!-- Created with Inkscape (http://www.inkscape.org/) -->

<svg
   width="12.170834mm"
   height="12.170834mm"
   viewBox="0 0 12.170834 12.170834"
   version="1.1"
   id="svg7003"
   inkscape:version="1.1.1 (3bf5ae0d25, 2021-09-20)"
   sodipodi:docname="icon-twitter.svg"
   xmlns:inkscape="http://www.inkscape.org/namespaces/inkscape"
   xmlns:sodipodi="http://sodipodi.sourceforge.net/DTD/sodipodi-0.dtd"
   xmlns="http://www.w3.org/2000/svg"
   xmlns:svg="http://www.w3.org/2000/svg">
  <sodipodi:namedview
     id="namedview7005"
     pagecolor="#ffffff"
     bordercolor="#666666"
     borderopacity="1.0"
     inkscape:pageshadow="2"
     inkscape:pageopacity="0.0"
     inkscape:pagecheckerboard="0"
     inkscape:document-units="mm"
     showgrid="false"
     fit-margin-top="0"
     fit-margin-left="0"
     fit-margin-right="0"
     fit-margin-bottom="0"
     inkscape:zoom="3.0930415"
     inkscape:cx="-48.010995"
     inkscape:cy="83.413041"
     inkscape:window-width="1920"
     inkscape:window-height="1006"
     inkscape:window-x="-8"
     inkscape:window-y="-8"
     inkscape:window-maximized="1"
     inkscape:current-layer="g7482" />
  <defs
     id="defs7000">
    <filter
       id="a"
       width="23.431"
       height="36.308998"
       x="0"
       y="0"
       color-interpolation-filters="sRGB"
       filterUnits="userSpaceOnUse">
      <feFlood
         flood-opacity="0"
         result="BackgroundImageFix"
         id="feFlood7437" />
      <feColorMatrix
         in="SourceAlpha"
         result="hardAlpha"
         values="0 0 0 0 0 0 0 0 0 0 0 0 0 0 0 0 0 0 127 0"
         id="feColorMatrix7439" />
      <feOffset
         dy="4"
         id="feOffset7441" />
      <feGaussianBlur
         stdDeviation="2"
         id="feGaussianBlur7443" />
      <feComposite
         in2="hardAlpha"
         operator="out"
         id="feComposite7445" />
      <feColorMatrix
         values="0 0 0 0 0 0 0 0 0 0 0 0 0 0 0 0 0 0 0.25 0"
         id="feColorMatrix7447" />
      <feBlend
         in2="BackgroundImageFix"
         result="effect1_dropShadow_71_85"
         id="feBlend7449"
         mode="normal" />
      <feBlend
         in="SourceGraphic"
         in2="effect1_dropShadow_71_85"
         result="shape"
         id="feBlend7451"
         mode="normal" />
    </filter>
    <filter
       id="a-3"
       width="23.431"
       height="36.309"
       x="0"
       y="0"
       color-interpolation-filters="sRGB"
       filterUnits="userSpaceOnUse">
      <feFlood
         flood-opacity="0"
         result="BackgroundImageFix"
         id="feFlood7692" />
      <feColorMatrix
         in="SourceAlpha"
         result="hardAlpha"
         values="0 0 0 0 0 0 0 0 0 0 0 0 0 0 0 0 0 0 127 0"
         id="feColorMatrix7694" />
      <feOffset
         dy="4"
         id="feOffset7696" />
      <feGaussianBlur
         stdDeviation="2"
         id="feGaussianBlur7698" />
      <feComposite
         in2="hardAlpha"
         operator="out"
         id="feComposite7700" />
      <feColorMatrix
         values="0 0 0 0 0 0 0 0 0 0 0 0 0 0 0 0 0 0 0.25 0"
         id="feColorMatrix7702" />
      <feBlend
         in2="BackgroundImageFix"
         result="effect1_dropShadow_71_85"
         id="feBlend7704" />
      <feBlend
         in="SourceGraphic"
         in2="effect1_dropShadow_71_85"
         result="shape"
         id="feBlend7706" />
    </filter>
    <filter
       id="a-1"
       width="23.431"
       height="36.309"
       x="0"
       y="0"
       color-interpolation-filters="sRGB"
       filterUnits="userSpaceOnUse">
      <feFlood
         flood-opacity="0"
         result="BackgroundImageFix"
         id="feFlood8143" />
      <feColorMatrix
         in="SourceAlpha"
         result="hardAlpha"
         values="0 0 0 0 0 0 0 0 0 0 0 0 0 0 0 0 0 0 127 0"
         id="feColorMatrix8145" />
      <feOffset
         dy="4"
         id="feOffset8147" />
      <feGaussianBlur
         stdDeviation="2"
         id="feGaussianBlur8149" />
      <feComposite
         in2="hardAlpha"
         operator="out"
         id="feComposite8151" />
      <feColorMatrix
         values="0 0 0 0 0 0 0 0 0 0 0 0 0 0 0 0 0 0 0.25 0"
         id="feColorMatrix8153" />
      <feBlend
         in2="BackgroundImageFix"
         result="effect1_dropShadow_71_85"
         id="feBlend8155" />
      <feBlend
         in="SourceGraphic"
         in2="effect1_dropShadow_71_85"
         result="shape"
         id="feBlend8157" />
    </filter>
    <filter
       id="a-16"
       width="37.095"
       height="31.823"
       x="0"
       y="0"
       color-interpolation-filters="sRGB"
       filterUnits="userSpaceOnUse">
      <feFlood
         flood-opacity="0"
         result="BackgroundImageFix"
         id="feFlood8259" />
      <feColorMatrix
         in="SourceAlpha"
         result="hardAlpha"
         values="0 0 0 0 0 0 0 0 0 0 0 0 0 0 0 0 0 0 127 0"
         id="feColorMatrix8261" />
      <feOffset
         dy="4"
         id="feOffset8263" />
      <feGaussianBlur
         stdDeviation="2"
         id="feGaussianBlur8265" />
      <feComposite
         in2="hardAlpha"
         operator="out"
         id="feComposite8267" />
      <feColorMatrix
         values="0 0 0 0 0 0 0 0 0 0 0 0 0 0 0 0 0 0 0.25 0"
         id="feColorMatrix8269" />
      <feBlend
         in2="BackgroundImageFix"
         result="effect1_dropShadow_71_75"
         id="feBlend8271" />
      <feBlend
         in="SourceGraphic"
         in2="effect1_dropShadow_71_75"
         result="shape"
         id="feBlend8273" />
    </filter>
  </defs>
  <g
     inkscape:label="Layer 1"
     inkscape:groupmode="layer"
     id="layer1"
     transform="translate(-183.47449,-61.321265)">
    <g
       style="fill:none"
       id="g7471"
       transform="matrix(0.26458333,0,0,0.26458333,17.430228,93.398235)">
      <path
         fill="#ffffff"
         d="m 18.383,15.923 0.812,-5.121 H 14.192 V 7.473 c 0,-1.4 0.699,-2.768 2.932,-2.768 h 2.307 V 0.345 A 28.165,28.165 0 0 0 15.37,0 C 11.252,0 8.564,2.456 8.564,6.897 v 3.905 H 4 v 5.12 H 8.564 V 28.31 h 5.628 V 15.923 h 4.19 z"
         id="path7433"
         style="filter:url(#a)" />
    </g>
    <g
       style="fill:none"
       id="g7482"
       transform="matrix(0.26458333,0,0,0.26458333,183.47449,61.321265)">
      <ellipse
         cx="23"
         cy="23"
         fill="#af2f3c"
         stroke="#af2f3c"
         id="circle7473"
         rx="22.499527"
         ry="22.5" />
      <g
         style="fill:none"
         id="g8293"
         transform="translate(5.208189,11.640945)">
        <path
           fill="#ffffff"
           d="m 32.966,2.862 c -0.941,0.402 -1.93,0.682 -2.944,0.833 0.474,-0.08 1.17,-0.927 1.448,-1.27 a 5.366,5.366 0 0 0 0.947,-1.741 c 0,-0.047 0.048,-0.114 0,-0.148 a 0.163,0.163 0 0 0 -0.155,0 A 14.947,14.947 0 0 1 28.777,1.88 0.245,0.245 0 0 1 28.533,1.82 3.373,3.373 0 0 0 28.228,1.504 6.351,6.351 0 0 0 26.564,0.435 5.889,5.889 0 0 0 23.972,0.012 6.306,6.306 0 0 0 21.508,0.684 6.37,6.37 0 0 0 19.559,2.324 6.194,6.194 0 0 0 18.375,4.677 6.417,6.417 0 0 0 18.314,7.164 c 0,0.141 0,0.161 -0.122,0.141 C 13.367,6.6 9.408,4.9 6.173,1.25 6.031,1.088 5.957,1.088 5.842,1.25 4.434,3.374 5.117,6.735 6.877,8.395 7.114,8.617 7.357,8.832 7.615,9.034 A 6.075,6.075 0 0 1 5.3,8.394 C 5.165,8.307 5.09,8.354 5.084,8.515 a 3.77,3.77 0 0 0 0,0.672 6.082,6.082 0 0 0 1.232,2.943 6.141,6.141 0 0 0 2.557,1.924 c 0.246,0.105 0.503,0.184 0.765,0.236 a 6.972,6.972 0 0 1 -2.267,0.067 c -0.162,-0.034 -0.223,0.054 -0.162,0.208 0.994,2.69 3.153,3.51 4.737,3.966 0.216,0.034 0.433,0.034 0.677,0.088 l -0.041,0.04 c -0.467,0.847 -2.355,1.418 -3.221,1.714 a 11.65,11.65 0 0 1 -4.94,0.632 c -0.265,-0.04 -0.325,-0.034 -0.393,0 -0.068,0.034 0,0.108 0.074,0.175 0.339,0.222 0.677,0.417 1.029,0.605 a 16.265,16.265 0 0 0 3.303,1.344 c 5.941,1.627 12.628,0.43 17.087,-3.973 3.506,-3.455 4.738,-8.22 4.738,-12.994 0,-0.181 0.223,-0.289 0.352,-0.383 a 11.574,11.574 0 0 0 2.32,-2.406 0.702,0.702 0 0 0 0.163,-0.484 c 0,-0.101 0,-0.08 -0.128,-0.027 z"
           id="path8255"
           style="filter:url(#a-16)" />
      </g>
    </g>
  </g>
</svg>
