<?xml version="1.0" encoding="UTF-8" standalone="no"?>
<!-- Created with Inkscape (http://www.inkscape.org/) -->

<svg
   width="97.102081mm"
   height="12.964583mm"
   viewBox="0 0 97.102085 12.964584"
   version="1.1"
   id="svg7003"
   inkscape:version="1.1.1 (3bf5ae0d25, 2021-09-20)"
   sodipodi:docname="icon-location.svg"
   xmlns:inkscape="http://www.inkscape.org/namespaces/inkscape"
   xmlns:sodipodi="http://sodipodi.sourceforge.net/DTD/sodipodi-0.dtd"
   xmlns="http://www.w3.org/2000/svg"
   xmlns:svg="http://www.w3.org/2000/svg">
  <sodipodi:namedview
     id="namedview7005"
     pagecolor="#ffffff"
     bordercolor="#666666"
     borderopacity="1.0"
     inkscape:pageshadow="2"
     inkscape:pageopacity="0.0"
     inkscape:pagecheckerboard="0"
     inkscape:document-units="mm"
     showgrid="false"
     fit-margin-top="0"
     fit-margin-left="0"
     fit-margin-right="0"
     fit-margin-bottom="0"
     inkscape:zoom="1.0935553"
     inkscape:cx="24.342321"
     inkscape:cy="-21.825319"
     inkscape:window-width="1920"
     inkscape:window-height="1006"
     inkscape:window-x="-8"
     inkscape:window-y="-8"
     inkscape:window-maximized="1"
     inkscape:current-layer="g7482">
    <inkscape:grid
       type="xygrid"
       id="grid8541"
       originx="42.563137"
       originy="1.1787202" />
  </sodipodi:namedview>
  <defs
     id="defs7000">
    <filter
       id="a"
       width="23.431"
       height="36.308998"
       x="0"
       y="0"
       color-interpolation-filters="sRGB"
       filterUnits="userSpaceOnUse">
      <feFlood
         flood-opacity="0"
         result="BackgroundImageFix"
         id="feFlood7437" />
      <feColorMatrix
         in="SourceAlpha"
         result="hardAlpha"
         values="0 0 0 0 0 0 0 0 0 0 0 0 0 0 0 0 0 0 127 0"
         id="feColorMatrix7439" />
      <feOffset
         dy="4"
         id="feOffset7441" />
      <feGaussianBlur
         stdDeviation="2"
         id="feGaussianBlur7443" />
      <feComposite
         in2="hardAlpha"
         operator="out"
         id="feComposite7445" />
      <feColorMatrix
         values="0 0 0 0 0 0 0 0 0 0 0 0 0 0 0 0 0 0 0.25 0"
         id="feColorMatrix7447" />
      <feBlend
         in2="BackgroundImageFix"
         result="effect1_dropShadow_71_85"
         id="feBlend7449"
         mode="normal" />
      <feBlend
         in="SourceGraphic"
         in2="effect1_dropShadow_71_85"
         result="shape"
         id="feBlend7451"
         mode="normal" />
    </filter>
    <filter
       id="a-3"
       width="23.431"
       height="36.308998"
       x="0"
       y="0"
       color-interpolation-filters="sRGB"
       filterUnits="userSpaceOnUse">
      <feFlood
         flood-opacity="0"
         result="BackgroundImageFix"
         id="feFlood7692" />
      <feColorMatrix
         in="SourceAlpha"
         result="hardAlpha"
         values="0 0 0 0 0 0 0 0 0 0 0 0 0 0 0 0 0 0 127 0"
         id="feColorMatrix7694" />
      <feOffset
         dy="4"
         id="feOffset7696" />
      <feGaussianBlur
         stdDeviation="2"
         id="feGaussianBlur7698" />
      <feComposite
         in2="hardAlpha"
         operator="out"
         id="feComposite7700" />
      <feColorMatrix
         values="0 0 0 0 0 0 0 0 0 0 0 0 0 0 0 0 0 0 0.25 0"
         id="feColorMatrix7702" />
      <feBlend
         in2="BackgroundImageFix"
         result="effect1_dropShadow_71_85"
         id="feBlend7704"
         mode="normal" />
      <feBlend
         in="SourceGraphic"
         in2="effect1_dropShadow_71_85"
         result="shape"
         id="feBlend7706"
         mode="normal" />
    </filter>
    <filter
       id="a-1"
       width="23.431"
       height="36.308998"
       x="0"
       y="0"
       color-interpolation-filters="sRGB"
       filterUnits="userSpaceOnUse">
      <feFlood
         flood-opacity="0"
         result="BackgroundImageFix"
         id="feFlood8143" />
      <feColorMatrix
         in="SourceAlpha"
         result="hardAlpha"
         values="0 0 0 0 0 0 0 0 0 0 0 0 0 0 0 0 0 0 127 0"
         id="feColorMatrix8145" />
      <feOffset
         dy="4"
         id="feOffset8147" />
      <feGaussianBlur
         stdDeviation="2"
         id="feGaussianBlur8149" />
      <feComposite
         in2="hardAlpha"
         operator="out"
         id="feComposite8151" />
      <feColorMatrix
         values="0 0 0 0 0 0 0 0 0 0 0 0 0 0 0 0 0 0 0.25 0"
         id="feColorMatrix8153" />
      <feBlend
         in2="BackgroundImageFix"
         result="effect1_dropShadow_71_85"
         id="feBlend8155"
         mode="normal" />
      <feBlend
         in="SourceGraphic"
         in2="effect1_dropShadow_71_85"
         result="shape"
         id="feBlend8157"
         mode="normal" />
    </filter>
    <filter
       id="a-16"
       width="37.095001"
       height="31.823"
       x="0"
       y="0"
       color-interpolation-filters="sRGB"
       filterUnits="userSpaceOnUse">
      <feFlood
         flood-opacity="0"
         result="BackgroundImageFix"
         id="feFlood8259" />
      <feColorMatrix
         in="SourceAlpha"
         result="hardAlpha"
         values="0 0 0 0 0 0 0 0 0 0 0 0 0 0 0 0 0 0 127 0"
         id="feColorMatrix8261" />
      <feOffset
         dy="4"
         id="feOffset8263" />
      <feGaussianBlur
         stdDeviation="2"
         id="feGaussianBlur8265" />
      <feComposite
         in2="hardAlpha"
         operator="out"
         id="feComposite8267" />
      <feColorMatrix
         values="0 0 0 0 0 0 0 0 0 0 0 0 0 0 0 0 0 0 0.25 0"
         id="feColorMatrix8269" />
      <feBlend
         in2="BackgroundImageFix"
         result="effect1_dropShadow_71_75"
         id="feBlend8271"
         mode="normal" />
      <feBlend
         in="SourceGraphic"
         in2="effect1_dropShadow_71_75"
         result="shape"
         id="feBlend8273"
         mode="normal" />
    </filter>
    <filter
       id="a-9"
       width="36.015999"
       height="36.308998"
       x="0"
       y="0.79799998"
       color-interpolation-filters="sRGB"
       filterUnits="userSpaceOnUse">
      <feFlood
         flood-opacity="0"
         result="BackgroundImageFix"
         id="feFlood8505" />
      <feColorMatrix
         in="SourceAlpha"
         result="hardAlpha"
         values="0 0 0 0 0 0 0 0 0 0 0 0 0 0 0 0 0 0 127 0"
         id="feColorMatrix8507" />
      <feOffset
         dy="4"
         id="feOffset8509" />
      <feGaussianBlur
         stdDeviation="2"
         id="feGaussianBlur8511" />
      <feComposite
         in2="hardAlpha"
         operator="out"
         id="feComposite8513" />
      <feColorMatrix
         values="0 0 0 0 0 0 0 0 0 0 0 0 0 0 0 0 0 0 0.25 0"
         id="feColorMatrix8515" />
      <feBlend
         in2="BackgroundImageFix"
         result="effect1_dropShadow_71_81"
         id="feBlend8517"
         mode="normal" />
      <feBlend
         in="SourceGraphic"
         in2="effect1_dropShadow_71_81"
         result="shape"
         id="feBlend8519"
         mode="normal" />
    </filter>
    <filter
       id="a-0"
       width="32"
       height="38.98"
       x="19"
       y="18"
       color-interpolation-filters="sRGB"
       filterUnits="userSpaceOnUse">
      <feFlood
         flood-opacity="0"
         result="BackgroundImageFix"
         id="feFlood8884" />
      <feColorMatrix
         in="SourceAlpha"
         result="hardAlpha"
         values="0 0 0 0 0 0 0 0 0 0 0 0 0 0 0 0 0 0 127 0"
         id="feColorMatrix8886" />
      <feOffset
         dy="4"
         id="feOffset8888" />
      <feGaussianBlur
         stdDeviation="2"
         id="feGaussianBlur8890" />
      <feComposite
         in2="hardAlpha"
         operator="out"
         id="feComposite8892" />
      <feColorMatrix
         values="0 0 0 0 0 0 0 0 0 0 0 0 0 0 0 0 0 0 0.25 0"
         id="feColorMatrix8894" />
      <feBlend
         in2="BackgroundImageFix"
         result="effect1_dropShadow_151_491"
         id="feBlend8896" />
      <feBlend
         in="SourceGraphic"
         in2="effect1_dropShadow_151_491"
         result="shape"
         id="feBlend8898" />
    </filter>
    <filter
       id="b"
       width="9.788"
       height="14.208"
       x="29.996"
       y="24.647"
       color-interpolation-filters="sRGB"
       filterUnits="userSpaceOnUse">
      <feFlood
         flood-opacity="0"
         result="BackgroundImageFix"
         id="feFlood8901" />
      <feBlend
         in="SourceGraphic"
         in2="BackgroundImageFix"
         result="shape"
         id="feBlend8903" />
      <feColorMatrix
         in="SourceAlpha"
         result="hardAlpha"
         values="0 0 0 0 0 0 0 0 0 0 0 0 0 0 0 0 0 0 127 0"
         id="feColorMatrix8905" />
      <feOffset
         dy="4"
         id="feOffset8907" />
      <feGaussianBlur
         stdDeviation="2"
         id="feGaussianBlur8909" />
      <feComposite
         in2="hardAlpha"
         k2="-1"
         k3="1"
         operator="arithmetic"
         id="feComposite8911" />
      <feColorMatrix
         values="0 0 0 0 0 0 0 0 0 0 0 0 0 0 0 0 0 0 0.25 0"
         id="feColorMatrix8913" />
      <feBlend
         in2="shape"
         result="effect1_innerShadow_151_491"
         id="feBlend8915" />
    </filter>
    <filter
       id="a-5"
       width="293.635"
       height="25.842"
       x=".98"
       y="0"
       color-interpolation-filters="sRGB"
       filterUnits="userSpaceOnUse">
      <feFlood
         flood-opacity="0"
         result="BackgroundImageFix"
         id="feFlood8952" />
      <feColorMatrix
         in="SourceAlpha"
         result="hardAlpha"
         values="0 0 0 0 0 0 0 0 0 0 0 0 0 0 0 0 0 0 127 0"
         id="feColorMatrix8954" />
      <feOffset
         dy="4"
         id="feOffset8956" />
      <feGaussianBlur
         stdDeviation="2"
         id="feGaussianBlur8958" />
      <feComposite
         in2="hardAlpha"
         operator="out"
         id="feComposite8960" />
      <feColorMatrix
         values="0 0 0 0 0 0 0 0 0 0 0 0 0 0 0 0 0 0 0.25 0"
         id="feColorMatrix8962" />
      <feBlend
         in2="BackgroundImageFix"
         result="effect1_dropShadow_151_535"
         id="feBlend8964" />
      <feBlend
         in="SourceGraphic"
         in2="effect1_dropShadow_151_535"
         result="shape"
         id="feBlend8966" />
    </filter>
  </defs>
  <g
     inkscape:label="Layer 1"
     inkscape:groupmode="layer"
     id="layer1"
     transform="translate(-140.91135,-60.142545)">
    <g
       style="fill:none"
       id="g7471"
       transform="matrix(0.26458333,0,0,0.26458333,17.430228,93.398235)">
      <path
         fill="#ffffff"
         d="m 18.383,15.923 0.812,-5.121 H 14.192 V 7.473 c 0,-1.4 0.699,-2.768 2.932,-2.768 h 2.307 V 0.345 A 28.165,28.165 0 0 0 15.37,0 C 11.252,0 8.564,2.456 8.564,6.897 v 3.905 H 4 v 5.12 H 8.564 V 28.31 h 5.628 V 15.923 h 4.19 z"
         id="path7433"
         style="filter:url(#a)" />
    </g>
    <g
       style="fill:none"
       id="g7482"
       transform="matrix(0.26458333,0,0,0.26458333,183.47449,61.321265)">
      <g
         style="fill:none"
         id="g8874"
         transform="translate(-160.86855,-4.4550054)">
        <rect
           width="367"
           height="49"
           fill="#af2f3c"
           rx="24.5"
           id="rect8865"
           x="0"
           y="0" />
      </g>
      <g
         style="fill:none"
         id="g8946"
         transform="matrix(1.0411377,0,0,0.9953854,-172.59601,-13.10832)">
        <g
           filter="url(#a)"
           id="g8882"
           style="filter:url(#a-0)">
          <path
             fill="#ffffff"
             fill-rule="evenodd"
             d="M 35.004,48.98 C 30.412,43.98 22.601,36.88 23.016,29.158 23.694,22.879 28.803,18 35.004,18 c 6.2,0 11.31,4.88 11.988,11.158 0.286,8.432 -6.77,14.266 -11.988,19.822 z"
             clip-rule="evenodd"
             id="path8876" />
          <g
             filter="url(#b)"
             id="g8880">
            <path
               fill="#af2f3c"
               d="m 39.784,29.751 c 0,2.82 -2.191,5.104 -4.894,5.104 -2.703,0 -4.894,-2.285 -4.894,-5.104 0,-2.819 2.19,-5.104 4.894,-5.104 2.703,0 4.894,2.285 4.894,5.104 z"
               id="path8878" />
          </g>
        </g>
      </g>
      <g
         style="fill:none"
         id="g8986"
         transform="translate(-114.12447,11.744051)">
        <path
           fill="#ffffff"
           d="m 14.023,11.152 c 0,0.866 -0.201,1.602 -0.605,2.207 a 3.79,3.79 0 0 1 -1.621,1.368 c -0.677,0.312 -1.442,0.468 -2.295,0.468 -0.853,0 -1.621,-0.156 -2.305,-0.468 A 3.79,3.79 0 0 1 5.577,13.359 C 5.179,12.754 4.98,12.019 4.98,11.152 4.98,10.586 5.088,10.068 5.303,9.6 5.524,9.124 5.833,8.71 6.23,8.36 A 4.262,4.262 0 0 1 7.656,7.549 5.454,5.454 0 0 1 9.482,7.256 c 0.873,0 1.65,0.17 2.334,0.508 0.684,0.332 1.221,0.79 1.612,1.377 0.397,0.586 0.595,1.256 0.595,2.011 z m -1.816,-0.039 c 0,-0.527 -0.114,-0.993 -0.342,-1.396 A 2.416,2.416 0 0 0 10.908,8.76 C 10.498,8.532 10.023,8.418 9.482,8.418 8.929,8.418 8.451,8.532 8.047,8.76 A 2.387,2.387 0 0 0 7.119,9.717 c -0.221,0.403 -0.332,0.869 -0.332,1.396 0,0.547 0.108,1.016 0.322,1.407 0.222,0.384 0.534,0.68 0.938,0.888 0.41,0.202 0.895,0.303 1.455,0.303 0.56,0 1.042,-0.101 1.445,-0.303 0.404,-0.208 0.713,-0.504 0.928,-0.888 0.221,-0.391 0.332,-0.86 0.332,-1.407 z m 1.484,-6.63 A 3.32,3.32 0 0 1 13.145,6.348 C 12.78,6.901 12.282,7.338 11.65,7.656 11.019,7.976 10.303,8.135 9.502,8.135 8.688,8.135 7.962,7.975 7.324,7.656 A 3.726,3.726 0 0 1 5.84,6.348 3.36,3.36 0 0 1 5.303,4.482 c 0,-0.826 0.179,-1.53 0.537,-2.109 A 3.561,3.561 0 0 1 7.334,1.045 c 0.631,-0.306 1.35,-0.46 2.158,-0.46 0.814,0 1.537,0.154 2.168,0.46 a 3.497,3.497 0 0 1 1.485,1.328 c 0.364,0.58 0.546,1.283 0.546,2.11 z m -1.806,0.029 c 0,-0.476 -0.101,-0.895 -0.303,-1.26 a 2.22,2.22 0 0 0 -0.84,-0.86 C 10.384,2.178 9.967,2.07 9.492,2.07 9.017,2.07 8.6,2.171 8.242,2.373 a 2.103,2.103 0 0 0 -0.83,0.84 C 7.217,3.577 7.119,4.01 7.119,4.512 c 0,0.488 0.098,0.914 0.293,1.279 0.202,0.365 0.482,0.648 0.84,0.85 0.358,0.201 0.775,0.302 1.25,0.302 0.475,0 0.889,-0.1 1.24,-0.302 C 11.1,6.439 11.38,6.156 11.582,5.791 11.784,5.426 11.885,5 11.885,4.511 Z m 6.22,8.974 h 0.186 c 1.042,0 1.888,-0.146 2.54,-0.44 0.65,-0.292 1.151,-0.686 1.503,-1.18 a 4.422,4.422 0 0 0 0.723,-1.67 C 23.187,9.57 23.252,8.929 23.252,8.271 V 6.094 C 23.252,5.449 23.177,4.876 23.027,4.375 22.884,3.874 22.682,3.454 22.422,3.115 A 2.688,2.688 0 0 0 21.552,2.344 2.147,2.147 0 0 0 20.518,2.08 2.44,2.44 0 0 0 19.395,2.334 2.358,2.358 0 0 0 18.565,3.027 c -0.222,0.3 -0.391,0.651 -0.508,1.055 A 4.716,4.716 0 0 0 17.88,5.4 c 0,0.424 0.052,0.834 0.156,1.23 0.104,0.398 0.264,0.756 0.479,1.075 0.215,0.32 0.481,0.573 0.8,0.762 0.326,0.182 0.707,0.273 1.143,0.273 0.404,0 0.781,-0.078 1.133,-0.234 a 3.28,3.28 0 0 0 1.611,-1.602 c 0.17,-0.351 0.267,-0.72 0.293,-1.103 h 0.86 c 0,0.54 -0.108,1.074 -0.323,1.601 a 4.896,4.896 0 0 1 -0.879,1.426 c -0.377,0.43 -0.82,0.775 -1.328,1.035 a 3.66,3.66 0 0 1 -1.66,0.381 c -0.703,0 -1.312,-0.137 -1.826,-0.41 A 3.688,3.688 0 0 1 17.069,8.74 5.002,5.002 0 0 1 16.337,7.217 6.433,6.433 0 0 1 16.102,5.498 c 0,-0.677 0.095,-1.312 0.284,-1.904 a 4.634,4.634 0 0 1 0.84,-1.563 c 0.37,-0.455 0.83,-0.81 1.377,-1.064 0.553,-0.254 1.19,-0.381 1.914,-0.381 0.813,0 1.507,0.163 2.08,0.488 a 4.015,4.015 0 0 1 1.396,1.309 c 0.365,0.547 0.632,1.162 0.8,1.846 0.17,0.683 0.255,1.386 0.255,2.109 v 0.654 c 0,0.736 -0.049,1.485 -0.147,2.246 a 8.955,8.955 0 0 1 -0.537,2.168 5.7,5.7 0 0 1 -1.142,1.856 c -0.502,0.54 -1.156,0.97 -1.963,1.289 -0.801,0.312 -1.79,0.469 -2.969,0.469 h -0.186 v -1.534 z m 18.418,-2.334 c 0,0.866 -0.201,1.602 -0.605,2.207 a 3.79,3.79 0 0 1 -1.621,1.368 c -0.677,0.312 -1.442,0.468 -2.295,0.468 -0.853,0 -1.621,-0.156 -2.305,-0.468 a 3.789,3.789 0 0 1 -1.62,-1.368 c -0.398,-0.605 -0.597,-1.34 -0.597,-2.207 0,-0.566 0.108,-1.084 0.323,-1.552 0.221,-0.476 0.53,-0.89 0.927,-1.24 a 4.262,4.262 0 0 1 1.426,-0.811 5.455,5.455 0 0 1 1.826,-0.293 c 0.873,0 1.65,0.17 2.334,0.508 0.684,0.332 1.221,0.79 1.612,1.377 0.397,0.586 0.595,1.256 0.595,2.011 z m -1.816,-0.039 c 0,-0.527 -0.114,-0.993 -0.342,-1.396 A 2.416,2.416 0 0 0 33.408,8.76 c -0.41,-0.228 -0.885,-0.342 -1.426,-0.342 -0.553,0 -1.031,0.114 -1.435,0.342 a 2.387,2.387 0 0 0 -0.928,0.957 c -0.221,0.403 -0.332,0.869 -0.332,1.396 0,0.547 0.108,1.016 0.322,1.407 0.222,0.384 0.534,0.68 0.938,0.888 0.41,0.202 0.895,0.303 1.455,0.303 0.56,0 1.042,-0.101 1.445,-0.303 0.404,-0.208 0.713,-0.504 0.928,-0.888 0.221,-0.391 0.332,-0.86 0.332,-1.407 z m 1.484,-6.63 c 0,0.69 -0.182,1.311 -0.547,1.865 -0.364,0.553 -0.862,0.99 -1.494,1.308 -0.631,0.32 -1.347,0.479 -2.148,0.479 -0.814,0 -1.54,-0.16 -2.178,-0.479 A 3.726,3.726 0 0 1 28.34,6.348 3.36,3.36 0 0 1 27.803,4.482 c 0,-0.826 0.179,-1.53 0.537,-2.109 a 3.562,3.562 0 0 1 1.494,-1.328 c 0.631,-0.306 1.35,-0.46 2.158,-0.46 0.814,0 1.537,0.154 2.168,0.46 a 3.497,3.497 0 0 1 1.485,1.328 c 0.364,0.58 0.546,1.283 0.546,2.11 z m -1.806,0.029 c 0,-0.476 -0.101,-0.895 -0.303,-1.26 a 2.22,2.22 0 0 0 -0.84,-0.86 C 32.884,2.178 32.467,2.07 31.992,2.07 c -0.475,0 -0.892,0.101 -1.25,0.303 a 2.103,2.103 0 0 0 -0.83,0.84 c -0.195,0.364 -0.293,0.797 -0.293,1.299 0,0.488 0.098,0.914 0.293,1.279 0.202,0.365 0.482,0.648 0.84,0.85 0.358,0.201 0.775,0.302 1.25,0.302 0.475,0 0.889,-0.1 1.24,-0.302 C 33.6,6.439 33.88,6.156 34.082,5.791 34.284,5.426 34.385,5 34.385,4.511 Z m 18.437,5.967 h 1.875 c -0.097,0.898 -0.355,1.702 -0.771,2.412 a 4.51,4.51 0 0 1 -1.768,1.69 c -0.761,0.41 -1.712,0.614 -2.851,0.614 -0.834,0 -1.592,-0.156 -2.276,-0.468 A 5.056,5.056 0 0 1 45.283,13.398 C 44.795,12.819 44.417,12.126 44.15,11.318 43.89,10.505 43.76,9.6 43.76,8.604 V 7.188 c 0,-0.997 0.13,-1.898 0.39,-2.706 0.267,-0.813 0.648,-1.51 1.143,-2.09 A 5.097,5.097 0 0 1 47.1,1.056 c 0.703,-0.313 1.494,-0.47 2.373,-0.47 1.074,0 1.982,0.203 2.724,0.606 a 4.336,4.336 0 0 1 1.729,1.68 c 0.416,0.71 0.674,1.533 0.771,2.47 H 52.822 C 52.732,4.679 52.562,4.109 52.314,3.634 A 2.64,2.64 0 0 0 51.26,2.52 C 50.804,2.26 50.208,2.129 49.473,2.129 c -0.632,0 -1.188,0.12 -1.67,0.361 a 3.36,3.36 0 0 0 -1.201,1.026 c -0.32,0.442 -0.56,0.973 -0.723,1.591 a 8.093,8.093 0 0 0 -0.244,2.061 v 1.436 c 0,0.696 0.071,1.35 0.215,1.962 0.15,0.612 0.374,1.15 0.673,1.612 0.3,0.462 0.68,0.827 1.143,1.093 0.462,0.26 1.01,0.391 1.64,0.391 0.801,0 1.44,-0.127 1.915,-0.38 a 2.49,2.49 0 0 0 1.074,-1.095 c 0.247,-0.475 0.423,-1.044 0.527,-1.708 z m 8.555,4.716 c -0.736,0 -1.403,-0.123 -2.002,-0.37 A 4.54,4.54 0 0 1 57.842,13.76 4.736,4.736 0 0 1 56.865,12.139 5.947,5.947 0 0 1 56.523,10.088 v -0.41 c 0,-0.86 0.127,-1.625 0.381,-2.295 A 5.16,5.16 0 0 1 57.939,5.664 4.421,4.421 0 0 1 59.424,4.6 4.264,4.264 0 0 1 61.143,4.238 c 0.755,0 1.406,0.13 1.953,0.39 a 3.56,3.56 0 0 1 1.357,1.095 c 0.352,0.462 0.612,1.009 0.781,1.64 0.17,0.625 0.254,1.309 0.254,2.051 v 0.81 h -7.89 V 8.75 h 6.084 V 8.613 A 4.507,4.507 0 0 0 63.389,7.246 2.458,2.458 0 0 0 62.607,6.152 C 62.249,5.866 61.761,5.722 61.143,5.722 A 2.459,2.459 0 0 0 59.121,6.748 C 58.874,7.087 58.681,7.5 58.545,7.988 58.408,8.477 58.34,9.04 58.34,9.678 v 0.41 c 0,0.501 0.068,0.973 0.205,1.416 0.143,0.436 0.348,0.82 0.615,1.152 0.274,0.332 0.602,0.593 0.987,0.781 0.39,0.19 0.833,0.284 1.328,0.284 0.638,0 1.178,-0.13 1.62,-0.39 0.443,-0.261 0.83,-0.61 1.163,-1.046 l 1.094,0.87 a 5.057,5.057 0 0 1 -0.87,0.986 4.147,4.147 0 0 1 -1.298,0.761 c -0.508,0.196 -1.11,0.293 -1.807,0.293 z M 69.561,0 V 15 H 67.744 V 0 Z m 9.13,13.193 v -5.44 c 0,-0.416 -0.084,-0.777 -0.254,-1.083 A 1.662,1.662 0 0 0 77.695,5.947 c -0.332,-0.169 -0.742,-0.254 -1.23,-0.254 -0.456,0 -0.856,0.078 -1.201,0.235 a 2.091,2.091 0 0 0 -0.801,0.615 1.348,1.348 0 0 0 -0.283,0.82 h -1.807 c 0,-0.377 0.098,-0.752 0.293,-1.123 0.195,-0.37 0.475,-0.706 0.84,-1.006 a 4.198,4.198 0 0 1 1.328,-0.722 c 0.52,-0.183 1.1,-0.274 1.738,-0.274 0.769,0 1.446,0.13 2.031,0.39 a 3.043,3.043 0 0 1 1.387,1.183 c 0.339,0.52 0.508,1.175 0.508,1.962 v 4.922 c 0,0.352 0.03,0.726 0.088,1.123 0.065,0.398 0.16,0.74 0.283,1.026 V 15 h -1.885 a 3.372,3.372 0 0 1 -0.215,-0.83 6.692,6.692 0 0 1 -0.078,-0.977 z m 0.313,-4.6 0.02,1.27 h -1.827 c -0.514,0 -0.973,0.043 -1.377,0.127 a 3.15,3.15 0 0 0 -1.015,0.362 1.716,1.716 0 0 0 -0.625,0.615 c -0.144,0.24 -0.215,0.524 -0.215,0.85 0,0.331 0.075,0.634 0.224,0.908 0.15,0.273 0.375,0.491 0.674,0.654 0.306,0.156 0.68,0.234 1.123,0.234 0.554,0 1.042,-0.117 1.465,-0.351 a 3.05,3.05 0 0 0 1.006,-0.86 c 0.254,-0.338 0.39,-0.667 0.41,-0.986 l 0.772,0.87 c -0.046,0.273 -0.17,0.575 -0.371,0.907 a 4.372,4.372 0 0 1 -2.002,1.709 3.88,3.88 0 0 1 -1.543,0.293 c -0.716,0 -1.345,-0.14 -1.885,-0.42 a 3.223,3.223 0 0 1 -1.25,-1.123 2.972,2.972 0 0 1 -0.44,-1.591 c 0,-0.567 0.111,-1.065 0.333,-1.495 0.22,-0.436 0.54,-0.797 0.957,-1.084 0.416,-0.293 0.918,-0.514 1.503,-0.664 a 7.933,7.933 0 0 1 1.963,-0.224 h 2.1 z M 90,12.95 V 0 h 1.816 v 15 h -1.66 z M 82.89,9.835 V 9.63 c 0,-0.807 0.098,-1.54 0.294,-2.197 a 5.309,5.309 0 0 1 0.85,-1.71 c 0.37,-0.475 0.81,-0.84 1.318,-1.093 A 3.75,3.75 0 0 1 87.07,4.24 c 0.664,0 1.244,0.116 1.739,0.35 0.5,0.229 0.924,0.564 1.27,1.007 0.35,0.436 0.627,0.963 0.83,1.582 a 9.98,9.98 0 0 1 0.42,2.1 v 0.898 a 9.203,9.203 0 0 1 -0.42,2.09 4.93,4.93 0 0 1 -0.83,1.582 3.474,3.474 0 0 1 -1.27,1.005 c -0.502,0.228 -1.088,0.342 -1.758,0.342 a 3.633,3.633 0 0 1 -1.7,-0.4 4.011,4.011 0 0 1 -1.318,-1.123 5.473,5.473 0 0 1 -0.85,-1.7 7.483,7.483 0 0 1 -0.292,-2.138 z M 84.707,9.63 v 0.205 c 0,0.527 0.052,1.022 0.156,1.484 0.111,0.463 0.28,0.87 0.508,1.221 0.228,0.352 0.518,0.628 0.87,0.83 0.35,0.196 0.77,0.293 1.259,0.293 0.599,0 1.09,-0.127 1.475,-0.38 0.39,-0.255 0.703,-0.59 0.937,-1.007 0.234,-0.416 0.417,-0.869 0.547,-1.357 V 8.564 A 5.216,5.216 0 0 0 90.117,7.529 3.187,3.187 0 0 0 89.551,6.631 2.45,2.45 0 0 0 88.701,5.996 C 88.369,5.84 87.975,5.762 87.52,5.762 c -0.495,0 -0.922,0.104 -1.28,0.312 a 2.493,2.493 0 0 0 -0.869,0.84 3.883,3.883 0 0 0 -0.508,1.23 6.74,6.74 0 0 0 -0.156,1.485 z M 94.15,9.835 V 9.61 c 0,-0.761 0.111,-1.468 0.332,-2.119 0.222,-0.657 0.54,-1.227 0.957,-1.709 a 4.27,4.27 0 0 1 1.514,-1.133 c 0.593,-0.273 1.257,-0.41 1.992,-0.41 0.743,0 1.41,0.137 2.002,0.41 a 4.253,4.253 0 0 1 1.524,1.133 c 0.423,0.482 0.745,1.052 0.967,1.71 0.221,0.65 0.332,1.357 0.332,2.118 v 0.225 c 0,0.762 -0.111,1.468 -0.332,2.12 a 5.085,5.085 0 0 1 -0.967,1.708 4.43,4.43 0 0 1 -1.514,1.133 c -0.586,0.267 -1.25,0.4 -1.992,0.4 -0.742,0 -1.41,-0.133 -2.002,-0.4 A 4.528,4.528 0 0 1 95.44,13.663 5.162,5.162 0 0 1 94.482,11.954 6.545,6.545 0 0 1 94.15,9.835 Z M 95.957,9.61 v 0.225 c 0,0.527 0.062,1.025 0.186,1.494 0.123,0.462 0.309,0.873 0.556,1.23 0.254,0.359 0.57,0.642 0.948,0.85 0.377,0.202 0.816,0.303 1.318,0.303 0.495,0 0.928,-0.101 1.299,-0.303 0.377,-0.208 0.69,-0.491 0.937,-0.85 0.248,-0.357 0.433,-0.768 0.557,-1.23 a 5.57,5.57 0 0 0 0.195,-1.494 V 9.61 c 0,-0.52 -0.065,-1.012 -0.195,-1.474 a 3.802,3.802 0 0 0 -0.567,-1.24 2.683,2.683 0 0 0 -0.937,-0.86 C 99.883,5.828 99.447,5.724 98.945,5.724 c -0.494,0 -0.93,0.104 -1.308,0.312 a 2.81,2.81 0 0 0 -0.938,0.86 3.921,3.921 0 0 0 -0.556,1.24 5.684,5.684 0 0 0 -0.186,1.474 z M 107.842,6.69 V 15 h -1.807 V 4.434 h 1.709 l 0.098,2.255 z m -0.43,2.627 -0.752,-0.029 a 6.38,6.38 0 0 1 0.322,-2.002 5.02,5.02 0 0 1 0.879,-1.611 3.92,3.92 0 0 1 3.096,-1.436 c 0.521,0 0.99,0.072 1.406,0.215 0.417,0.137 0.772,0.358 1.065,0.664 0.299,0.306 0.527,0.703 0.683,1.192 0.157,0.481 0.235,1.07 0.235,1.767 V 15 h -1.817 V 8.057 c 0,-0.554 -0.081,-0.996 -0.244,-1.328 A 1.5,1.5 0 0 0 111.572,5.996 C 111.26,5.84 110.876,5.762 110.42,5.762 a 2.68,2.68 0 0 0 -1.231,0.283 2.95,2.95 0 0 0 -0.947,0.781 c -0.26,0.332 -0.465,0.713 -0.615,1.143 a 4.182,4.182 0 0 0 -0.215,1.347 z m 14.912,-8.536 h 4.707 c 1.068,0 1.97,0.163 2.705,0.489 0.743,0.325 1.306,0.807 1.69,1.445 0.39,0.631 0.586,1.41 0.586,2.334 a 3.98,3.98 0 0 1 -0.401,1.787 c -0.26,0.534 -0.638,0.99 -1.132,1.367 -0.489,0.371 -1.075,0.648 -1.758,0.83 l -0.528,0.205 h -4.423 l -0.02,-1.533 h 3.34 c 0.677,0 1.24,-0.117 1.689,-0.351 a 2.47,2.47 0 0 0 1.016,-0.967 c 0.228,-0.404 0.342,-0.85 0.342,-1.338 0,-0.547 -0.108,-1.026 -0.323,-1.436 -0.214,-0.41 -0.553,-0.726 -1.015,-0.947 -0.456,-0.228 -1.045,-0.342 -1.768,-0.342 h -2.822 V 15 h -1.885 z m 8.311,14.219 -3.457,-6.445 1.963,-0.01 3.505,6.338 V 15 Z m 3.261,-5.166 V 9.609 c 0,-0.761 0.111,-1.468 0.333,-2.119 0.221,-0.657 0.54,-1.227 0.957,-1.709 a 4.266,4.266 0 0 1 1.513,-1.133 c 0.593,-0.273 1.257,-0.41 1.992,-0.41 0.743,0 1.41,0.137 2.002,0.41 a 4.253,4.253 0 0 1 1.524,1.133 c 0.423,0.482 0.745,1.052 0.967,1.71 0.221,0.65 0.332,1.357 0.332,2.118 v 0.225 c 0,0.762 -0.111,1.468 -0.332,2.12 a 5.085,5.085 0 0 1 -0.967,1.708 4.42,4.42 0 0 1 -1.514,1.133 c -0.586,0.267 -1.25,0.4 -1.992,0.4 -0.742,0 -1.41,-0.133 -2.002,-0.4 a 4.53,4.53 0 0 1 -1.523,-1.133 5.15,5.15 0 0 1 -0.957,-1.709 6.526,6.526 0 0 1 -0.333,-2.119 z m 1.807,-0.225 v 0.225 c 0,0.527 0.062,1.025 0.186,1.494 0.123,0.462 0.309,0.873 0.556,1.23 0.254,0.359 0.57,0.642 0.948,0.85 0.377,0.202 0.817,0.303 1.318,0.303 0.495,0 0.928,-0.101 1.299,-0.303 0.377,-0.208 0.69,-0.491 0.937,-0.85 0.248,-0.357 0.433,-0.768 0.557,-1.23 a 5.57,5.57 0 0 0 0.195,-1.494 V 9.609 c 0,-0.52 -0.065,-1.012 -0.195,-1.474 A 3.822,3.822 0 0 0 140.938,6.895 2.695,2.695 0 0 0 140,6.035 c -0.371,-0.208 -0.807,-0.312 -1.309,-0.312 -0.494,0 -0.931,0.104 -1.308,0.312 a 2.813,2.813 0 0 0 -0.938,0.86 3.914,3.914 0 0 0 -0.556,1.24 5.67,5.67 0 0 0 -0.186,1.474 z m 16.309,3.584 v -5.44 c 0,-0.416 -0.085,-0.777 -0.254,-1.083 a 1.663,1.663 0 0 0 -0.742,-0.723 c -0.332,-0.169 -0.743,-0.254 -1.231,-0.254 -0.456,0 -0.856,0.078 -1.201,0.235 a 2.094,2.094 0 0 0 -0.801,0.615 1.347,1.347 0 0 0 -0.283,0.82 h -1.807 c 0,-0.377 0.098,-0.752 0.293,-1.123 0.196,-0.37 0.476,-0.706 0.84,-1.006 a 4.2,4.2 0 0 1 1.328,-0.722 5.24,5.24 0 0 1 1.739,-0.274 c 0.768,0 1.445,0.13 2.031,0.39 a 3.048,3.048 0 0 1 1.387,1.183 c 0.338,0.52 0.507,1.175 0.507,1.962 v 4.922 c 0,0.352 0.03,0.726 0.088,1.123 0.065,0.398 0.16,0.74 0.283,1.026 V 15 h -1.884 a 3.376,3.376 0 0 1 -0.215,-0.83 6.705,6.705 0 0 1 -0.078,-0.977 z m 0.312,-4.6 0.02,1.27 h -1.826 c -0.515,0 -0.974,0.043 -1.377,0.127 a 3.145,3.145 0 0 0 -1.016,0.362 1.719,1.719 0 0 0 -0.625,0.615 c -0.143,0.24 -0.215,0.524 -0.215,0.85 0,0.331 0.075,0.634 0.225,0.908 0.15,0.273 0.374,0.491 0.674,0.654 0.306,0.156 0.68,0.234 1.123,0.234 0.553,0 1.041,-0.117 1.464,-0.351 a 3.04,3.04 0 0 0 1.006,-0.86 c 0.254,-0.338 0.391,-0.667 0.411,-0.986 l 0.771,0.87 c -0.046,0.273 -0.169,0.575 -0.371,0.907 a 4.375,4.375 0 0 1 -2.002,1.709 3.88,3.88 0 0 1 -1.543,0.293 c -0.716,0 -1.344,-0.14 -1.885,-0.42 a 3.225,3.225 0 0 1 -1.25,-1.123 2.972,2.972 0 0 1 -0.439,-1.591 c 0,-0.567 0.11,-1.065 0.332,-1.495 0.221,-0.436 0.54,-0.797 0.957,-1.084 0.416,-0.293 0.918,-0.514 1.504,-0.664 a 7.933,7.933 0 0 1 1.963,-0.224 h 2.099 z m 10.996,4.356 V 0 h 1.817 v 15 h -1.66 L 163.32,12.95 Z M 156.211,9.834 V 9.629 c 0,-0.807 0.098,-1.54 0.293,-2.197 0.202,-0.664 0.485,-1.234 0.85,-1.71 a 3.84,3.84 0 0 1 1.318,-1.093 3.749,3.749 0 0 1 1.719,-0.39 c 0.664,0 1.243,0.116 1.738,0.35 0.501,0.229 0.924,0.564 1.269,1.007 0.352,0.436 0.629,0.963 0.831,1.582 0.201,0.618 0.341,1.318 0.419,2.1 v 0.898 a 9.189,9.189 0 0 1 -0.419,2.09 4.927,4.927 0 0 1 -0.831,1.582 3.475,3.475 0 0 1 -1.269,1.005 c -0.501,0.228 -1.087,0.342 -1.758,0.342 a 3.633,3.633 0 0 1 -1.699,-0.4 4.007,4.007 0 0 1 -1.318,-1.123 5.47,5.47 0 0 1 -0.85,-1.7 7.493,7.493 0 0 1 -0.293,-2.138 z m 1.816,-0.205 v 0.205 c 0,0.527 0.052,1.022 0.157,1.484 0.11,0.463 0.28,0.87 0.507,1.221 0.228,0.352 0.518,0.628 0.87,0.83 0.351,0.196 0.771,0.293 1.259,0.293 0.599,0 1.091,-0.127 1.475,-0.38 0.391,-0.255 0.703,-0.59 0.937,-1.007 0.235,-0.416 0.417,-0.869 0.547,-1.357 V 8.564 a 5.253,5.253 0 0 0 -0.341,-1.035 3.215,3.215 0 0 0 -0.567,-0.898 2.447,2.447 0 0 0 -0.85,-0.635 c -0.332,-0.156 -0.725,-0.234 -1.181,-0.234 -0.495,0 -0.921,0.104 -1.279,0.312 a 2.492,2.492 0 0 0 -0.87,0.84 3.887,3.887 0 0 0 -0.507,1.23 6.69,6.69 0 0 0 -0.157,1.485 z m 11.563,3.223 v 1.455 c 0,0.592 -0.15,1.217 -0.449,1.875 -0.3,0.664 -0.72,1.217 -1.26,1.66 l -1.026,-0.713 c 0.209,-0.287 0.385,-0.58 0.528,-0.879 0.143,-0.293 0.25,-0.599 0.322,-0.918 0.078,-0.313 0.117,-0.645 0.117,-0.996 v -1.484 z m 15.117,-1.446 c 0,-0.332 -0.052,-0.625 -0.156,-0.879 a 1.678,1.678 0 0 0 -0.528,-0.703 c -0.247,-0.208 -0.592,-0.407 -1.035,-0.595 -0.436,-0.19 -0.989,-0.381 -1.66,-0.577 A 15.247,15.247 0 0 1 179.424,7.959 6.623,6.623 0 0 1 177.969,7.07 3.505,3.505 0 0 1 177.041,5.928 c -0.215,-0.43 -0.322,-0.921 -0.322,-1.475 a 3.46,3.46 0 0 1 1.318,-2.753 4.74,4.74 0 0 1 1.533,-0.821 6.316,6.316 0 0 1 1.983,-0.293 c 1.067,0 1.972,0.205 2.715,0.615 0.748,0.404 1.318,0.934 1.709,1.592 a 4,4 0 0 1 0.585,2.09 h -1.874 c 0,-0.534 -0.114,-1.006 -0.342,-1.416 A 2.356,2.356 0 0 0 183.311,2.49 c -0.463,-0.24 -1.049,-0.361 -1.758,-0.361 -0.671,0 -1.224,0.1 -1.66,0.303 -0.437,0.201 -0.762,0.475 -0.977,0.82 a 2.244,2.244 0 0 0 -0.312,1.182 c 0,0.3 0.061,0.573 0.185,0.82 0.13,0.24 0.329,0.465 0.596,0.674 0.273,0.208 0.618,0.4 1.035,0.576 0.423,0.176 0.928,0.345 1.514,0.508 0.807,0.228 1.504,0.481 2.089,0.761 0.586,0.28 1.068,0.596 1.446,0.948 0.384,0.345 0.667,0.739 0.849,1.181 a 3.7,3.7 0 0 1 0.284,1.485 3.47,3.47 0 0 1 -0.352,1.572 c -0.234,0.469 -0.57,0.87 -1.006,1.201 a 4.85,4.85 0 0 1 -1.572,0.772 7.281,7.281 0 0 1 -2.031,0.263 7.042,7.042 0 0 1 -1.944,-0.273 5.799,5.799 0 0 1 -1.728,-0.82 4.284,4.284 0 0 1 -1.24,-1.348 c -0.306,-0.54 -0.459,-1.165 -0.459,-1.875 h 1.875 c 0,0.488 0.094,0.908 0.283,1.26 0.189,0.345 0.446,0.631 0.771,0.859 0.332,0.228 0.707,0.397 1.123,0.508 0.423,0.104 0.863,0.156 1.319,0.156 0.657,0 1.214,-0.091 1.67,-0.273 0.455,-0.183 0.8,-0.443 1.035,-0.782 0.241,-0.338 0.361,-0.739 0.361,-1.2 z m 8.447,-6.972 V 5.82 h -5.713 V 4.434 Z m -3.779,-2.569 h 1.807 v 10.518 c 0,0.358 0.055,0.628 0.166,0.81 0.11,0.183 0.254,0.303 0.429,0.362 a 1.8,1.8 0 0 0 0.567,0.088 c 0.149,0 0.306,-0.013 0.468,-0.04 0.17,-0.032 0.297,-0.058 0.381,-0.078 l 0.01,1.475 a 4.22,4.22 0 0 1 -0.566,0.127 4.317,4.317 0 0 1 -0.83,0.068 c -0.443,0 -0.85,-0.088 -1.221,-0.263 -0.371,-0.176 -0.667,-0.47 -0.889,-0.88 -0.215,-0.416 -0.322,-0.976 -0.322,-1.679 z m 5.928,12.178 c 0,-0.306 0.094,-0.563 0.283,-0.771 0.195,-0.215 0.475,-0.323 0.84,-0.323 0.364,0 0.641,0.108 0.83,0.322 0.195,0.209 0.293,0.466 0.293,0.772 0,0.3 -0.098,0.553 -0.293,0.762 -0.189,0.208 -0.466,0.312 -0.83,0.312 -0.365,0 -0.645,-0.104 -0.84,-0.312 a 1.092,1.092 0 0 1 -0.283,-0.762 z M 211.748,10.85 V 0.78 h 1.875 v 10.07 c 0,0.937 -0.192,1.728 -0.576,2.373 a 3.786,3.786 0 0 1 -1.592,1.474 c -0.67,0.332 -1.442,0.498 -2.314,0.498 -0.873,0 -1.648,-0.15 -2.325,-0.449 a 3.508,3.508 0 0 1 -1.591,-1.367 c -0.385,-0.612 -0.577,-1.384 -0.577,-2.314 h 1.885 c 0,0.598 0.111,1.09 0.332,1.474 0.222,0.384 0.528,0.667 0.918,0.85 0.397,0.182 0.85,0.273 1.358,0.273 0.494,0 0.937,-0.104 1.328,-0.312 0.397,-0.215 0.709,-0.531 0.937,-0.948 0.228,-0.423 0.342,-0.94 0.342,-1.552 z m 4.316,-1.016 V 9.609 c 0,-0.761 0.111,-1.468 0.332,-2.119 a 5.042,5.042 0 0 1 0.958,-1.709 4.266,4.266 0 0 1 1.513,-1.133 c 0.593,-0.273 1.257,-0.41 1.992,-0.41 0.743,0 1.41,0.137 2.002,0.41 a 4.253,4.253 0 0 1 1.524,1.133 c 0.423,0.482 0.745,1.052 0.967,1.71 0.221,0.65 0.332,1.357 0.332,2.118 v 0.225 c 0,0.762 -0.111,1.468 -0.332,2.12 a 5.085,5.085 0 0 1 -0.967,1.708 4.42,4.42 0 0 1 -1.514,1.133 c -0.586,0.267 -1.25,0.4 -1.992,0.4 -0.742,0 -1.41,-0.133 -2.002,-0.4 a 4.53,4.53 0 0 1 -1.523,-1.133 5.17,5.17 0 0 1 -0.958,-1.709 6.553,6.553 0 0 1 -0.332,-2.119 z m 1.807,-0.225 v 0.225 c 0,0.527 0.062,1.025 0.186,1.494 0.123,0.462 0.309,0.873 0.556,1.23 0.254,0.359 0.57,0.642 0.948,0.85 0.377,0.202 0.817,0.303 1.318,0.303 0.495,0 0.928,-0.101 1.299,-0.303 0.377,-0.208 0.69,-0.491 0.937,-0.85 0.248,-0.357 0.433,-0.768 0.557,-1.23 a 5.57,5.57 0 0 0 0.195,-1.494 V 9.609 c 0,-0.52 -0.065,-1.012 -0.195,-1.474 a 3.802,3.802 0 0 0 -0.567,-1.24 2.683,2.683 0 0 0 -0.937,-0.86 c -0.371,-0.208 -0.807,-0.312 -1.309,-0.312 -0.494,0 -0.931,0.104 -1.308,0.312 a 2.813,2.813 0 0 0 -0.938,0.86 3.914,3.914 0 0 0 -0.556,1.24 5.67,5.67 0 0 0 -0.186,1.474 z M 229.756,0 v 15 h -1.807 V 0 Z m -0.43,9.316 -0.752,-0.029 a 6.38,6.38 0 0 1 0.322,-2.002 5.02,5.02 0 0 1 0.879,-1.611 3.92,3.92 0 0 1 3.096,-1.436 c 0.521,0 0.99,0.072 1.406,0.215 0.417,0.137 0.772,0.358 1.065,0.664 0.299,0.306 0.527,0.703 0.683,1.192 0.157,0.481 0.235,1.07 0.235,1.767 V 15 h -1.817 V 8.057 c 0,-0.554 -0.081,-0.996 -0.244,-1.328 A 1.5,1.5 0 0 0 233.486,5.996 C 233.174,5.84 232.79,5.762 232.334,5.762 a 2.67,2.67 0 0 0 -1.23,0.283 c -0.365,0.189 -0.681,0.45 -0.948,0.781 -0.26,0.332 -0.465,0.713 -0.615,1.143 a 4.182,4.182 0 0 0 -0.215,1.347 z M 240.771,6.689 V 15 h -1.806 V 4.434 h 1.709 z m -0.429,2.627 -0.752,-0.029 a 6.35,6.35 0 0 1 0.322,-2.002 4.983,4.983 0 0 1 0.879,-1.611 3.92,3.92 0 0 1 3.096,-1.436 c 0.521,0 0.989,0.072 1.406,0.215 0.417,0.137 0.771,0.358 1.064,0.664 0.3,0.306 0.528,0.703 0.684,1.192 0.156,0.481 0.234,1.07 0.234,1.767 V 15 h -1.816 V 8.057 c 0,-0.554 -0.081,-0.996 -0.244,-1.328 a 1.504,1.504 0 0 0 -0.713,-0.733 c -0.313,-0.156 -0.697,-0.234 -1.152,-0.234 -0.45,0 -0.86,0.094 -1.231,0.283 a 2.95,2.95 0 0 0 -0.947,0.781 3.899,3.899 0 0 0 -0.615,1.143 4.155,4.155 0 0 0 -0.215,1.347 z M 251.064,0 v 1.25 c 0,0.39 -0.068,0.804 -0.205,1.24 -0.13,0.43 -0.322,0.847 -0.576,1.25 a 4.55,4.55 0 0 1 -0.918,1.045 L 248.33,4.072 c 0.306,-0.43 0.537,-0.869 0.693,-1.318 0.163,-0.456 0.245,-0.947 0.245,-1.475 V 0 Z m 7.237,12.197 c 0,-0.26 -0.059,-0.501 -0.176,-0.722 -0.111,-0.228 -0.342,-0.433 -0.693,-0.616 -0.345,-0.188 -0.866,-0.351 -1.563,-0.488 a 12.414,12.414 0 0 1 -1.592,-0.44 4.84,4.84 0 0 1 -1.201,-0.615 2.59,2.59 0 0 1 -0.752,-0.85 c -0.176,-0.325 -0.263,-0.706 -0.263,-1.142 0,-0.416 0.091,-0.81 0.273,-1.181 0.189,-0.372 0.452,-0.7 0.791,-0.987 a 3.842,3.842 0 0 1 1.24,-0.674 5.016,5.016 0 0 1 1.612,-0.244 c 0.846,0 1.569,0.15 2.168,0.45 0.598,0.299 1.057,0.7 1.376,1.2 C 259.84,6.383 260,6.934 260,7.539 h -1.807 c 0,-0.293 -0.088,-0.576 -0.263,-0.85 -0.17,-0.28 -0.42,-0.51 -0.752,-0.693 -0.326,-0.182 -0.726,-0.273 -1.201,-0.273 -0.502,0 -0.909,0.078 -1.221,0.234 -0.306,0.15 -0.531,0.342 -0.674,0.576 a 1.448,1.448 0 0 0 -0.205,0.742 c 0,0.196 0.033,0.371 0.098,0.528 0.071,0.15 0.195,0.29 0.371,0.42 0.175,0.123 0.423,0.24 0.742,0.351 0.319,0.11 0.726,0.222 1.221,0.332 0.865,0.196 1.578,0.43 2.138,0.703 0.56,0.274 0.977,0.61 1.25,1.006 0.274,0.397 0.41,0.88 0.41,1.445 a 2.803,2.803 0 0 1 -1.123,2.266 4.116,4.116 0 0 1 -1.289,0.645 5.754,5.754 0 0 1 -1.67,0.224 c -0.931,0 -1.718,-0.166 -2.363,-0.498 -0.644,-0.332 -1.133,-0.761 -1.465,-1.289 a 3.084,3.084 0 0 1 -0.498,-1.67 h 1.817 c 0.026,0.495 0.169,0.889 0.429,1.182 0.261,0.286 0.58,0.492 0.957,0.615 0.378,0.117 0.752,0.176 1.123,0.176 0.495,0 0.909,-0.065 1.241,-0.195 0.338,-0.13 0.595,-0.31 0.771,-0.537 0.176,-0.228 0.264,-0.489 0.264,-0.782 z M 278.652,0.781 V 15 h -1.894 L 269.6,4.033 V 15 h -1.885 V 0.781 h 1.885 l 7.187,10.996 V 0.781 Z m 11.963,12.686 V 15 h -7.109 V 13.467 Z M 283.877,0.78 V 15 h -1.885 V 0.781 h 1.885 z"
           id="path8948"
           style="filter:url(#a-5)" />
      </g>
    </g>
  </g>
</svg>
