<?xml version="1.0" encoding="UTF-8" standalone="no"?>
<!-- Created with Inkscape (http://www.inkscape.org/) -->

<svg
   width="12.170834mm"
   height="12.170834mm"
   viewBox="0 0 12.170834 12.170834"
   version="1.1"
   id="svg7003"
   inkscape:version="1.1.1 (3bf5ae0d25, 2021-09-20)"
   sodipodi:docname="icon-instagram.svg"
   xmlns:inkscape="http://www.inkscape.org/namespaces/inkscape"
   xmlns:sodipodi="http://sodipodi.sourceforge.net/DTD/sodipodi-0.dtd"
   xmlns="http://www.w3.org/2000/svg"
   xmlns:svg="http://www.w3.org/2000/svg">
  <sodipodi:namedview
     id="namedview7005"
     pagecolor="#ffffff"
     bordercolor="#666666"
     borderopacity="1.0"
     inkscape:pageshadow="2"
     inkscape:pageopacity="0.0"
     inkscape:pagecheckerboard="0"
     inkscape:document-units="mm"
     showgrid="false"
     fit-margin-top="0"
     fit-margin-left="0"
     fit-margin-right="0"
     fit-margin-bottom="0"
     inkscape:zoom="6.186083"
     inkscape:cx="-3.152237"
     inkscape:cy="30.552451"
     inkscape:window-width="1920"
     inkscape:window-height="1006"
     inkscape:window-x="-8"
     inkscape:window-y="-8"
     inkscape:window-maximized="1"
     inkscape:current-layer="g7482">
    <inkscape:grid
       type="xygrid"
       id="grid8541" />
  </sodipodi:namedview>
  <defs
     id="defs7000">
    <filter
       id="a"
       width="23.431"
       height="36.308998"
       x="0"
       y="0"
       color-interpolation-filters="sRGB"
       filterUnits="userSpaceOnUse">
      <feFlood
         flood-opacity="0"
         result="BackgroundImageFix"
         id="feFlood7437" />
      <feColorMatrix
         in="SourceAlpha"
         result="hardAlpha"
         values="0 0 0 0 0 0 0 0 0 0 0 0 0 0 0 0 0 0 127 0"
         id="feColorMatrix7439" />
      <feOffset
         dy="4"
         id="feOffset7441" />
      <feGaussianBlur
         stdDeviation="2"
         id="feGaussianBlur7443" />
      <feComposite
         in2="hardAlpha"
         operator="out"
         id="feComposite7445" />
      <feColorMatrix
         values="0 0 0 0 0 0 0 0 0 0 0 0 0 0 0 0 0 0 0.25 0"
         id="feColorMatrix7447" />
      <feBlend
         in2="BackgroundImageFix"
         result="effect1_dropShadow_71_85"
         id="feBlend7449"
         mode="normal" />
      <feBlend
         in="SourceGraphic"
         in2="effect1_dropShadow_71_85"
         result="shape"
         id="feBlend7451"
         mode="normal" />
    </filter>
    <filter
       id="a-3"
       width="23.431"
       height="36.309"
       x="0"
       y="0"
       color-interpolation-filters="sRGB"
       filterUnits="userSpaceOnUse">
      <feFlood
         flood-opacity="0"
         result="BackgroundImageFix"
         id="feFlood7692" />
      <feColorMatrix
         in="SourceAlpha"
         result="hardAlpha"
         values="0 0 0 0 0 0 0 0 0 0 0 0 0 0 0 0 0 0 127 0"
         id="feColorMatrix7694" />
      <feOffset
         dy="4"
         id="feOffset7696" />
      <feGaussianBlur
         stdDeviation="2"
         id="feGaussianBlur7698" />
      <feComposite
         in2="hardAlpha"
         operator="out"
         id="feComposite7700" />
      <feColorMatrix
         values="0 0 0 0 0 0 0 0 0 0 0 0 0 0 0 0 0 0 0.25 0"
         id="feColorMatrix7702" />
      <feBlend
         in2="BackgroundImageFix"
         result="effect1_dropShadow_71_85"
         id="feBlend7704" />
      <feBlend
         in="SourceGraphic"
         in2="effect1_dropShadow_71_85"
         result="shape"
         id="feBlend7706" />
    </filter>
    <filter
       id="a-1"
       width="23.431"
       height="36.309"
       x="0"
       y="0"
       color-interpolation-filters="sRGB"
       filterUnits="userSpaceOnUse">
      <feFlood
         flood-opacity="0"
         result="BackgroundImageFix"
         id="feFlood8143" />
      <feColorMatrix
         in="SourceAlpha"
         result="hardAlpha"
         values="0 0 0 0 0 0 0 0 0 0 0 0 0 0 0 0 0 0 127 0"
         id="feColorMatrix8145" />
      <feOffset
         dy="4"
         id="feOffset8147" />
      <feGaussianBlur
         stdDeviation="2"
         id="feGaussianBlur8149" />
      <feComposite
         in2="hardAlpha"
         operator="out"
         id="feComposite8151" />
      <feColorMatrix
         values="0 0 0 0 0 0 0 0 0 0 0 0 0 0 0 0 0 0 0.25 0"
         id="feColorMatrix8153" />
      <feBlend
         in2="BackgroundImageFix"
         result="effect1_dropShadow_71_85"
         id="feBlend8155" />
      <feBlend
         in="SourceGraphic"
         in2="effect1_dropShadow_71_85"
         result="shape"
         id="feBlend8157" />
    </filter>
    <filter
       id="a-16"
       width="37.095"
       height="31.823"
       x="0"
       y="0"
       color-interpolation-filters="sRGB"
       filterUnits="userSpaceOnUse">
      <feFlood
         flood-opacity="0"
         result="BackgroundImageFix"
         id="feFlood8259" />
      <feColorMatrix
         in="SourceAlpha"
         result="hardAlpha"
         values="0 0 0 0 0 0 0 0 0 0 0 0 0 0 0 0 0 0 127 0"
         id="feColorMatrix8261" />
      <feOffset
         dy="4"
         id="feOffset8263" />
      <feGaussianBlur
         stdDeviation="2"
         id="feGaussianBlur8265" />
      <feComposite
         in2="hardAlpha"
         operator="out"
         id="feComposite8267" />
      <feColorMatrix
         values="0 0 0 0 0 0 0 0 0 0 0 0 0 0 0 0 0 0 0.25 0"
         id="feColorMatrix8269" />
      <feBlend
         in2="BackgroundImageFix"
         result="effect1_dropShadow_71_75"
         id="feBlend8271" />
      <feBlend
         in="SourceGraphic"
         in2="effect1_dropShadow_71_75"
         result="shape"
         id="feBlend8273" />
    </filter>
    <filter
       id="a-9"
       width="36.016"
       height="36.309"
       x="0"
       y=".798"
       color-interpolation-filters="sRGB"
       filterUnits="userSpaceOnUse">
      <feFlood
         flood-opacity="0"
         result="BackgroundImageFix"
         id="feFlood8505" />
      <feColorMatrix
         in="SourceAlpha"
         result="hardAlpha"
         values="0 0 0 0 0 0 0 0 0 0 0 0 0 0 0 0 0 0 127 0"
         id="feColorMatrix8507" />
      <feOffset
         dy="4"
         id="feOffset8509" />
      <feGaussianBlur
         stdDeviation="2"
         id="feGaussianBlur8511" />
      <feComposite
         in2="hardAlpha"
         operator="out"
         id="feComposite8513" />
      <feColorMatrix
         values="0 0 0 0 0 0 0 0 0 0 0 0 0 0 0 0 0 0 0.25 0"
         id="feColorMatrix8515" />
      <feBlend
         in2="BackgroundImageFix"
         result="effect1_dropShadow_71_81"
         id="feBlend8517" />
      <feBlend
         in="SourceGraphic"
         in2="effect1_dropShadow_71_81"
         result="shape"
         id="feBlend8519" />
    </filter>
  </defs>
  <g
     inkscape:label="Layer 1"
     inkscape:groupmode="layer"
     id="layer1"
     transform="translate(-183.47449,-61.321265)">
    <g
       style="fill:none"
       id="g7471"
       transform="matrix(0.26458333,0,0,0.26458333,17.430228,93.398235)">
      <path
         fill="#ffffff"
         d="m 18.383,15.923 0.812,-5.121 H 14.192 V 7.473 c 0,-1.4 0.699,-2.768 2.932,-2.768 h 2.307 V 0.345 A 28.165,28.165 0 0 0 15.37,0 C 11.252,0 8.564,2.456 8.564,6.897 v 3.905 H 4 v 5.12 H 8.564 V 28.31 h 5.628 V 15.923 h 4.19 z"
         id="path7433"
         style="filter:url(#a)" />
    </g>
    <g
       style="fill:none"
       id="g7482"
       transform="matrix(0.26458333,0,0,0.26458333,183.47449,61.321265)">
      <ellipse
         cx="23"
         cy="23"
         fill="#af2f3c"
         stroke="#af2f3c"
         id="circle7473"
         rx="22.499527"
         ry="22.5" />
      <g
         style="fill:none"
         id="g8539"
         transform="translate(4.9920014,7.8949135)">
        <path
           fill="#ffffff"
           d="m 13.34,14.953 c 0,-2.606 2.09,-4.719 4.668,-4.719 2.58,0 4.67,2.113 4.67,4.719 0,2.605 -2.09,4.718 -4.67,4.718 -2.578,0 -4.668,-2.113 -4.668,-4.718 z m -2.525,0 c 0,4.014 3.22,7.268 7.193,7.268 3.973,0 7.193,-3.254 7.193,-7.268 0,-4.014 -3.22,-7.269 -7.193,-7.269 -3.972,0 -7.193,3.254 -7.193,7.269 z m 12.99,-7.557 c 0,0.336 0.099,0.665 0.283,0.944 0.185,0.28 0.447,0.497 0.754,0.626 A 1.665,1.665 0 0 0 26.674,8.599 1.705,1.705 0 0 0 27.04,6.748 1.695,1.695 0 0 0 26.42,5.985 1.669,1.669 0 0 0 25.487,5.698 c -0.446,0 -0.874,0.18 -1.189,0.498 -0.315,0.318 -0.492,0.75 -0.493,1.2 z M 12.35,26.474 C 10.984,26.411 10.242,26.181 9.748,25.987 A 4.35,4.35 0 0 1 8.138,24.929 4.371,4.371 0 0 1 7.089,23.302 C 6.897,22.803 6.669,22.053 6.607,20.673 6.54,19.181 6.526,18.733 6.526,14.953 c 0,-3.78 0.015,-4.227 0.081,-5.72 C 6.67,7.853 6.899,7.103 7.089,6.604 A 4.404,4.404 0 0 1 8.137,4.976 4.31,4.31 0 0 1 9.748,3.917 c 0.494,-0.194 1.236,-0.424 2.602,-0.487 1.476,-0.068 1.92,-0.082 5.66,-0.082 3.738,0 4.183,0.015 5.66,0.082 1.366,0.063 2.107,0.295 2.602,0.487 0.654,0.256 1.12,0.564 1.611,1.059 a 4.4,4.4 0 0 1 1.048,1.628 c 0.192,0.498 0.42,1.249 0.482,2.629 0.068,1.493 0.081,1.94 0.081,5.72 0,3.78 -0.013,4.227 -0.081,5.72 -0.062,1.38 -0.291,2.13 -0.482,2.629 a 4.39,4.39 0 0 1 -1.048,1.627 4.35,4.35 0 0 1 -1.611,1.058 c -0.493,0.195 -1.236,0.425 -2.602,0.487 -1.476,0.069 -1.92,0.083 -5.66,0.083 -3.742,0 -4.184,-0.014 -5.66,-0.083 z M 12.233,0.884 c -1.491,0.068 -2.51,0.307 -3.4,0.657 A 6.864,6.864 0 0 0 6.35,3.174 6.924,6.924 0 0 0 4.735,5.68 C 4.389,6.58 4.153,7.61 4.085,9.116 4.015,10.627 4,11.11 4,14.953 c 0,3.844 0.016,4.326 0.085,5.835 0.068,1.507 0.304,2.536 0.65,3.436 0.358,0.93 0.837,1.721 1.616,2.508 a 6.88,6.88 0 0 0 2.482,1.632 c 0.891,0.35 1.909,0.589 3.4,0.658 1.494,0.068 1.971,0.085 5.775,0.085 3.805,0 4.282,-0.016 5.776,-0.085 1.491,-0.069 2.51,-0.308 3.4,-0.658 a 6.884,6.884 0 0 0 2.481,-1.633 6.942,6.942 0 0 0 1.616,-2.507 c 0.347,-0.9 0.584,-1.929 0.65,-3.436 C 32,19.278 32.016,18.797 32.016,14.953 32.016,11.109 32,10.626 31.932,9.117 31.864,7.61 31.628,6.581 31.282,5.681 A 6.969,6.969 0 0 0 29.665,3.174 6.847,6.847 0 0 0 27.185,1.541 c -0.892,-0.35 -1.91,-0.59 -3.4,-0.657 -1.495,-0.069 -1.971,-0.086 -5.776,-0.086 -3.804,0 -4.282,0.016 -5.776,0.086 z"
           id="path8501"
           style="filter:url(#a-9)" />
      </g>
    </g>
  </g>
</svg>
