<?xml version="1.0" encoding="UTF-8" standalone="no"?>
<!-- Created with Inkscape (http://www.inkscape.org/) -->

<svg
   width="139.7mm"
   height="220.30713mm"
   viewBox="0 0 139.7 220.30713"
   version="1.1"
   id="svg5"
   inkscape:version="1.1.1 (3bf5ae0d25, 2021-09-20)"
   sodipodi:docname="splash-text-overlay2.svg"
   xmlns:inkscape="http://www.inkscape.org/namespaces/inkscape"
   xmlns:sodipodi="http://sodipodi.sourceforge.net/DTD/sodipodi-0.dtd"
   xmlns="http://www.w3.org/2000/svg"
   xmlns:svg="http://www.w3.org/2000/svg">
  <sodipodi:namedview
     id="namedview7"
     pagecolor="#ffffff"
     bordercolor="#666666"
     borderopacity="1.0"
     inkscape:pageshadow="2"
     inkscape:pageopacity="0.0"
     inkscape:pagecheckerboard="0"
     inkscape:document-units="mm"
     showgrid="false"
     fit-margin-top="0"
     fit-margin-left="0"
     fit-margin-right="0"
     fit-margin-bottom="0"
     inkscape:zoom="0.73228114"
     inkscape:cx="386.46359"
     inkscape:cy="489.56607"
     inkscape:window-width="1920"
     inkscape:window-height="1011"
     inkscape:window-x="-8"
     inkscape:window-y="-8"
     inkscape:window-maximized="1"
     inkscape:current-layer="g842" />
  <defs
     id="defs2" />
  <g
     inkscape:label="Layer 1"
     inkscape:groupmode="layer"
     id="layer1"
     transform="translate(51.262598,-13.904676)">
    <g
       style="fill:none"
       id="g842"
       transform="matrix(0.26458333,0,0,0.26458333,-51.262598,0.6755091)">
      <path
         fill="#000000"
         d="M 0,50 H 528 V 340 H 0 Z"
         id="path824" />
      <path
         fill="#ffffff"
         d="M 76,165.6 H 58 V 90 H 37 V 300 H 58 V 185.4 H 76 V 300 H 97 V 90 H 76 Z M 151.082,87 c -12.9,0 -30,8.1 -30,30 v 156 c 0,21.9 17.1,30 30,30 12.9,0 30,-8.1 30,-30 V 117 c 0,-21.9 -17.1,-30 -30,-30 z m 0,195 c -5.1,0 -9,-3.9 -9,-9 V 117 c 0,-5.1 3.9,-9 9,-9 5.1,0 9,3.9 9,9 v 156 c 0,5.1 -3.9,9 -9,9 z M 254.664,254.4 235.164,90 h -30 v 210 h 21 V 160.5 l 18,139.5 h 18 l 21,-139.2 V 300 h 21 V 90 h -30 z M 378.611,90 h -50.4 v 210 h 50.4 v -21 h -30 v -87.6 h 24 v -19.8 h -24 V 111 h 30 z m 37.797,23.72 c -5.504,0 -12.288,3.456 -12.288,12.288 v 41.984 c 0,8.832 6.784,12.288 12.288,12.288 5.504,0 12.288,-3.456 12.288,-12.288 v -41.984 c 0,-8.832 -6.784,-12.288 -12.288,-12.288 z m 0,58.112 c -2.176,0 -3.84,-1.664 -3.84,-3.84 v -41.984 c 0,-2.176 1.664,-3.84 3.84,-3.84 2.176,0 3.84,1.664 3.84,3.84 v 41.984 c 0,2.176 -1.664,3.84 -3.84,3.84 z M 458.323,97.336 V 89.4 h -3.84 c -5.504,0 -12.288,3.456 -12.288,12.288 V 115 h -5.12 v 7.936 h 5.12 V 179 h 8.448 v -56.064 h 7.68 V 115 h -7.68 v -13.312 c 0,-2.688 1.664,-4.352 3.84,-4.352 z M 424.088,233 h -7.68 V 212.52 H 407.96 V 233 h -5.12 v 7.936 h 5.12 v 43.776 c 0,8.832 6.784,12.288 12.288,12.288 h 3.84 v -7.936 h -3.84 c -2.176,0 -3.84,-1.664 -3.84,-4.352 v -43.776 h 7.68 z m 18.09,64 v -52.736 c 0,-2.176 1.664,-3.84 3.84,-3.84 2.176,0 3.84,1.664 3.84,4.48 V 297 h 8.448 v -52.096 c 0,-9.856 -3.072,-13.184 -8.064,-13.184 -4.224,0 -6.656,2.816 -8.064,6.016 V 207.4 H 433.73 V 297 Z m 38.075,-65.28 c -5.504,0 -12.288,3.456 -12.288,12.288 v 41.984 c 0,8.832 6.784,12.288 12.288,12.288 5.504,0 12.288,-3.456 12.288,-12.288 v -8.96 h -8.448 v 8.96 c 0,2.176 -1.664,3.84 -3.84,3.84 -2.176,0 -3.84,-1.664 -3.84,-3.84 v -15.36 h 16.128 v -26.624 c 0,-8.832 -6.784,-12.288 -12.288,-12.288 z m -3.84,12.288 c 0,-2.176 1.664,-3.84 3.84,-3.84 2.176,0 3.84,1.664 3.84,3.84 v 18.688 h -7.68 z"
         id="path826" />
      <path
         fill="#000000"
         d="m 36,427 h 456 v 10 H 36 Z m 39.824,145.024 c 5.461,1.28 9.813,3.584 13.056,6.912 3.243,3.243 4.864,8.021 4.864,14.336 0,8.875 -2.987,15.403 -8.96,19.584 C 78.811,616.952 70.661,619 60.336,619 H 35.888 V 530.296 H 57.52 c 10.496,0 18.645,1.92 24.448,5.76 5.803,3.755 8.704,9.387 8.704,16.896 0,5.035 -1.365,9.173 -4.096,12.416 -2.73,3.157 -6.315,5.376 -10.752,6.656 z m -19.84,-27.52 v 21.504 h 3.84 c 3.84,0 6.57,-0.939 8.192,-2.816 1.621,-1.877 2.432,-4.651 2.432,-8.32 0,-3.413 -0.896,-5.973 -2.688,-7.68 -1.707,-1.792 -4.48,-2.688 -8.32,-2.688 z m 4.608,59.904 c 4.181,0 7.339,-0.939 9.472,-2.816 2.133,-1.963 3.2,-5.12 3.2,-9.472 0,-4.267 -0.981,-7.424 -2.944,-9.472 -1.963,-2.133 -5.077,-3.2 -9.344,-3.2 h -4.992 v 24.96 z m 61.017,-74.112 V 619 h -20.096 v -88.704 z m 45.824,-2.176 c 9.643,0 18.048,3.584 25.216,10.752 l -9.6,10.112 c -2.645,-2.219 -5.077,-3.797 -7.296,-4.736 -2.133,-1.024 -4.608,-1.536 -7.424,-1.536 -5.461,0 -9.557,2.347 -12.288,7.04 -2.731,4.693 -4.096,12.971 -4.096,24.832 0,8.363 0.469,14.848 1.408,19.456 0.939,4.608 2.347,7.808 4.224,9.6 1.877,1.792 4.352,2.688 7.424,2.688 3.157,0 6.101,-0.896 8.832,-2.688 v -21.248 h -8.448 l -1.92,-14.208 h 29.312 v 43.776 c -3.84,2.816 -8.192,5.035 -13.056,6.656 -4.864,1.621 -9.643,2.432 -14.336,2.432 -11.691,0 -20.309,-3.755 -25.856,-11.264 -5.547,-7.509 -8.32,-19.243 -8.32,-35.2 0,-10.325 1.536,-18.944 4.608,-25.856 3.157,-6.997 7.467,-12.16 12.928,-15.488 5.461,-3.413 11.691,-5.12 18.688,-5.12 z m 93.375,0 c 9.643,0 18.048,3.584 25.216,10.752 l -9.6,10.112 c -2.645,-2.219 -5.077,-3.797 -7.296,-4.736 -2.133,-1.024 -4.608,-1.536 -7.424,-1.536 -5.461,0 -9.557,2.347 -12.288,7.04 -2.731,4.693 -4.096,12.971 -4.096,24.832 0,8.363 0.469,14.848 1.408,19.456 0.939,4.608 2.347,7.808 4.224,9.6 1.877,1.792 4.352,2.688 7.424,2.688 3.157,0 6.101,-0.896 8.832,-2.688 v -21.248 h -8.448 l -1.92,-14.208 h 29.312 v 43.776 c -3.84,2.816 -8.192,5.035 -13.056,6.656 -4.864,1.621 -9.643,2.432 -14.336,2.432 -11.691,0 -20.309,-3.755 -25.856,-11.264 -5.547,-7.509 -8.32,-19.243 -8.32,-35.2 0,-10.325 1.536,-18.944 4.608,-25.856 3.157,-6.997 7.467,-12.16 12.928,-15.488 5.461,-3.413 11.691,-5.12 18.688,-5.12 z m 75.51,90.88 -3.584,-19.456 H 313.022 L 309.566,619 h -19.968 l 21.504,-88.704 h 24.064 L 356.67,619 Z M 315.71,585.08 h 14.464 l -7.296,-40.064 z M 401.452,619 386.988,584.824 h -5.504 V 619 h -20.096 v -88.704 h 23.68 c 22.016,0 33.024,8.96 33.024,26.88 0,5.205 -1.109,9.899 -3.328,14.08 -2.133,4.181 -5.504,7.424 -10.112,9.728 L 422.828,619 Z M 385.58,570.872 c 4.267,0 7.339,-1.067 9.216,-3.2 1.877,-2.219 2.816,-5.717 2.816,-10.496 0,-4.352 -1.024,-7.552 -3.072,-9.6 -1.963,-2.048 -5.163,-3.072 -9.6,-3.072 h -3.456 v 26.368 z m 97.328,-40.576 -23.296,55.296 V 619 H 439.516 V 585.72 L 416.22,530.296 h 20.992 l 12.544,39.68 12.8,-39.68 z M 67.504,682.12 c 4.693,0 8.917,0.811 12.672,2.432 3.84,1.621 7.424,4.053 10.752,7.296 l -9.344,11.008 c -2.133,-1.877 -4.224,-3.285 -6.272,-4.224 -1.963,-1.024 -4.096,-1.536 -6.4,-1.536 -4.693,0 -8.277,2.432 -10.752,7.296 -2.475,4.779 -3.712,12.8 -3.712,24.064 0,11.008 1.237,18.944 3.712,23.808 2.56,4.864 6.187,7.296 10.88,7.296 2.56,0 4.779,-0.512 6.656,-1.536 1.877,-1.024 4.181,-2.645 6.912,-4.864 l 9.088,10.752 c -3.072,3.328 -6.656,6.059 -10.752,8.192 -4.096,2.048 -8.661,3.072 -13.696,3.072 -10.24,0 -18.432,-3.925 -24.576,-11.776 -6.059,-7.851 -9.088,-19.499 -9.088,-34.944 0,-10.155 1.408,-18.688 4.224,-25.6 2.901,-6.912 6.912,-12.075 12.032,-15.488 5.12,-3.499 11.008,-5.248 17.664,-5.248 z m 63.822,20.736 c 4.864,0 8.661,1.749 11.392,5.248 2.816,3.499 4.224,8.192 4.224,14.08 V 773 h -19.328 v -48.768 c 0,-4.437 -1.237,-6.656 -3.712,-6.656 -2.475,0 -5.163,2.731 -8.064,8.192 V 773 H 96.51 v -94.976 l 19.328,-2.048 V 712.2 c 2.133,-3.243 4.437,-5.589 6.912,-7.04 2.475,-1.536 5.333,-2.304 8.576,-2.304 z m 46.012,2.176 V 773 H 158.01 v -67.968 z m -9.856,-35.328 c 3.328,0 5.973,1.067 7.936,3.2 2.048,2.048 3.072,4.693 3.072,7.936 0,3.157 -1.024,5.803 -3.072,7.936 -2.048,2.048 -4.693,3.072 -7.936,3.072 -3.243,0 -5.888,-1.024 -7.936,-3.072 -2.048,-2.133 -3.072,-4.779 -3.072,-7.936 0,-3.243 1.024,-5.888 3.072,-7.936 2.048,-2.133 4.693,-3.2 7.936,-3.2 z m 47.774,33.152 c 3.925,0 7.467,0.683 10.624,2.048 3.157,1.365 6.101,3.456 8.832,6.272 l -7.936,10.624 c -3.499,-2.816 -6.827,-4.224 -9.984,-4.224 -3.499,0 -6.101,1.621 -7.808,4.864 -1.707,3.157 -2.56,8.832 -2.56,17.024 0,7.765 0.896,13.141 2.688,16.128 1.792,2.987 4.309,4.48 7.552,4.48 1.707,0 3.285,-0.299 4.736,-0.896 1.451,-0.597 3.115,-1.621 4.992,-3.072 l 8.32,11.136 c -5.547,5.291 -11.947,7.936 -19.2,7.936 -9.216,0 -16.384,-2.987 -21.504,-8.96 -5.12,-6.059 -7.68,-14.933 -7.68,-26.624 0,-7.595 1.152,-14.123 3.456,-19.584 2.389,-5.547 5.76,-9.771 10.112,-12.672 4.352,-2.987 9.472,-4.48 15.36,-4.48 z m 44.207,-26.88 V 773 h -19.328 v -94.976 z m 35.456,29.056 -16.128,29.952 17.152,38.016 h -20.352 l -15.744,-37.12 16.64,-30.848 z m 55.928,32.64 c 0,2.731 -0.128,5.077 -0.384,7.04 h -34.56 c 0.427,6.144 1.536,10.411 3.328,12.8 1.877,2.304 4.565,3.456 8.064,3.456 2.304,0 4.523,-0.427 6.656,-1.28 2.133,-0.939 4.437,-2.347 6.912,-4.224 l 7.936,10.496 c -6.315,6.144 -13.952,9.216 -22.912,9.216 -9.557,0 -16.811,-3.115 -21.76,-9.344 -4.949,-6.315 -7.424,-15.104 -7.424,-26.368 0,-11.264 2.347,-20.181 7.04,-26.752 4.779,-6.571 11.563,-9.856 20.352,-9.856 8.363,0 14.891,2.987 19.584,8.96 4.779,5.888 7.168,14.507 7.168,25.856 z m -18.816,-5.504 c 0,-5.803 -0.597,-9.984 -1.792,-12.544 -1.109,-2.645 -3.115,-3.968 -6.016,-3.968 -2.56,0 -4.523,1.28 -5.888,3.84 -1.28,2.475 -2.091,6.997 -2.432,13.568 h 16.128 z m 62.045,-29.312 c 4.864,0 8.661,1.749 11.392,5.248 2.816,3.499 4.224,8.192 4.224,14.08 V 773 h -19.328 v -48.768 c 0,-4.437 -1.237,-6.656 -3.712,-6.656 -2.475,0 -5.163,2.731 -8.064,8.192 V 773 H 359.26 v -67.968 h 16.768 l 1.408,8.064 c 2.219,-3.413 4.651,-5.973 7.296,-7.68 2.645,-1.707 5.76,-2.56 9.344,-2.56 z"
         id="path828"
         sodipodi:nodetypes="cccccccscsccscsccccscscscscscsccscccccscccssssssccccccssssccsscccssssssccccccssssccscccccccccccccccccccssccccscscsccsccccccccccsccccscscsscccscsccsscsccsscccccccscccccscscscscsssccscssssccscsccsccccccccccccscccscccscscscsscscccsscsccssccccccss" />
      <path
         d="m 67.454,789.60089 c 5.547,0 10.411,0.939 14.592,2.816 4.267,1.877 8.149,4.693 11.648,8.448 l -8.832,10.496 c -5.12,-4.693 -10.197,-7.04 -15.232,-7.04 -2.901,0 -5.163,0.853 -6.784,2.56 -1.621,1.707 -2.432,3.968 -2.432,6.784 0,2.731 0.939,4.992 2.816,6.784 1.877,1.707 5.504,3.712 10.88,6.016 4.949,2.21899 8.96,4.52299 12.032,6.91199 3.072,2.304 5.376,5.163 6.912,8.576 1.621,3.413 2.432,7.637 2.432,12.672 0,5.376 -1.237,10.197 -3.712,14.464 -2.389,4.267 -5.845,7.595 -10.368,9.984 -4.523,2.389 -9.813,3.584 -15.872,3.584 -6.315,0 -11.776,-1.109 -16.384,-3.328 -4.608,-2.219 -8.747,-5.291 -12.416,-9.216 l 9.6,-10.624 c 3.072,2.731 5.973,4.821 8.704,6.272 2.7906,1.35931 5.85597,2.05997 8.96,2.048 3.499,0 6.144,-1.024 7.936,-3.072 1.792,-2.133 2.688,-4.992 2.688,-8.576 0,-3.243 -0.896,-5.888 -2.688,-7.936 -1.792,-2.133 -5.035,-4.139 -9.728,-6.016 -8.192,-3.413 -13.995,-7.168 -17.408,-11.264 -3.413,-4.18099 -5.12,-9.42899 -5.12,-15.74399 0,-5.035 1.195,-9.472 3.584,-13.312 2.389,-3.925 5.675,-6.955 9.856,-9.088 4.267,-2.133 9.045,-3.2 14.336,-3.2 z m 82.632,72.83199 c 0,2.133 0.256,3.712 0.768,4.736 0.512,1.024 1.408,1.835 2.688,2.432 l -3.968,12.672 c -3.669,-0.341 -6.699,-1.195 -9.088,-2.56 -2.304,-1.451 -4.096,-3.669 -5.376,-6.656 -3.925,6.4 -9.515,9.6 -16.768,9.6 -5.632,0 -10.112,-1.92 -13.44,-5.76 -3.328,-3.925 -4.992,-9.088 -4.992,-15.488 0,-7.424 2.304,-13.056 6.912,-16.896 4.608,-3.925 11.349,-5.888 20.224,-5.888 h 4.096 v -3.584 c 0,-4.096 -0.64,-6.912 -1.92,-8.44799 -1.195,-1.621 -3.371,-2.432 -6.528,-2.432 -3.925,0 -8.789,1.152 -14.592,3.45599 l -4.352,-12.28799 c 3.499,-1.621 7.211,-2.859 11.136,-3.712 4.011,-0.853 7.808,-1.28 11.392,-1.28 8.021,0 13.995,1.963 17.92,5.888 3.925,3.84 5.888,9.771 5.888,17.79199 z m -25.856,6.528 c 1.451,0 2.773,-0.555 3.968,-1.664 1.195,-1.109 2.176,-2.688 2.944,-4.736 v -13.184 h -2.304 c -3.499,0 -6.059,0.853 -7.68,2.56 -1.536,1.621 -2.304,4.224 -2.304,7.808 0,2.987 0.469,5.291 1.408,6.912 0.939,1.536 2.261,2.304 3.968,2.304 z m 72.452,-58.62399 c 4.864,0 8.661,1.749 11.392,5.248 2.816,3.499 4.224,8.192 4.224,14.07999 v 50.816 H 192.97 v -48.768 c 0,-4.437 -1.237,-6.65599 -3.712,-6.65599 -2.475,0 -5.163,2.73099 -8.064,8.19199 v 47.232 h -19.328 v -67.96799 h 16.768 l 1.408,8.064 c 2.219,-3.413 4.651,-5.973 7.296,-7.68 2.645,-1.707 5.76,-2.56 9.344,-2.56 z m 79.292,-24.832 v 94.97599 h -17.28 l -0.64,-7.168 c -1.963,2.901 -4.181,5.205 -6.656,6.912 -2.475,1.621 -5.461,2.432 -8.96,2.432 -6.997,0 -12.331,-3.115 -16,-9.344 -3.669,-6.315 -5.504,-15.275 -5.504,-26.88 0,-7.253 0.981,-13.611 2.944,-19.072 1.963,-5.46099 4.693,-9.64299 8.192,-12.54399 3.499,-2.987 7.467,-4.48 11.904,-4.48 5.12,0 9.344,2.091 12.672,6.272 v -33.152 z m -27.264,82.94399 c 2.987,0 5.632,-2.219 7.936,-6.656 v -31.744 c -1.109,-1.877 -2.219,-3.24299 -3.328,-4.09599 -1.065,-0.92271 -2.43097,-1.42356 -3.84,-1.408 -5.803,0 -8.704,7.29599 -8.704,21.88799 0,8.277 0.683,14.037 2.048,17.28 1.451,3.157 3.413,4.736 5.888,4.736 z m 113.92,-55.93599 -11.264,67.96799 h -22.528 l -6.4,-50.56 -6.272,50.56 h -22.4 l -11.392,-67.96799 h 18.56 l 5.12,53.37599 7.552,-53.37599 h 18.304 l 7.168,53.37599 5.504,-53.37599 z m 25.814,0 v 67.96799 h -19.328 v -67.96799 z m -9.856,-35.328 c 3.328,0 5.973,1.067 7.936,3.2 2.048,2.048 3.072,4.693 3.072,7.936 0,3.157 -1.024,5.803 -3.072,7.936 -2.048,2.048 -4.693,3.072 -7.936,3.072 -3.243,0 -5.888,-1.024 -7.936,-3.072 -2.048,-2.133 -3.072,-4.779 -3.072,-7.936 0,-3.243 1.024,-5.888 3.072,-7.936 2.048,-2.133 4.693,-3.2 7.936,-3.2 z m 47.774,33.152 c 3.925,0 7.46701,0.683 10.62401,2.048 3.157,1.365 6.101,3.456 8.832,6.272 l -7.936,10.62399 c -3.499,-2.81599 -6.82701,-4.22399 -9.98401,-4.22399 -3.499,0 -6.101,1.621 -7.808,4.86399 -1.707,3.157 -2.56,8.832 -2.56,17.024 0,7.765 0.896,13.141 2.688,16.128 1.792,2.987 4.309,4.48 7.552,4.48 1.707,0 3.285,-0.299 4.736,-0.896 1.45101,-0.597 3.11501,-1.621 4.99201,-3.072 l 8.32,11.136 c -5.547,5.291 -11.947,7.936 -19.20001,7.936 -9.216,0 -16.384,-2.987 -21.504,-8.96 -5.12,-6.059 -7.68,-14.933 -7.68,-26.624 0,-7.595 1.152,-14.123 3.456,-19.584 2.389,-5.54699 5.76,-9.77099 10.112,-12.67199 4.352,-2.987 9.472,-4.48 15.36,-4.48 z m 59.69501,0 c 4.864,0 8.661,1.749 11.392,5.248 2.816,3.499 4.224,8.192 4.224,14.07999 v 50.816 h -19.328 v -48.768 c 0,-4.437 -1.237,-6.65599 -3.712,-6.65599 -2.475,0 -5.163,2.73099 -8.064,8.19199 v 47.232 h -19.328 v -94.97599 l 19.328,-2.048 v 36.224 c 2.133,-3.243 4.437,-5.589 6.912,-7.04 2.475,-1.536 5.333,-2.304 8.576,-2.304 z"
         style="fill:#000000"
         id="path8223" />
      <path
         fill="#515151"
         d="m 494.576,529.158 c 2.112,0 4,0.544 5.664,1.632 1.696,1.088 3.024,2.624 3.984,4.608 0.96,1.984 1.44,4.272 1.44,6.864 0,2.56 -0.48,4.832 -1.44,6.816 -0.96,1.952 -2.288,3.472 -3.984,4.56 -1.664,1.056 -3.552,1.584 -5.664,1.584 -2.144,0 -4.064,-0.528 -5.76,-1.584 -1.696,-1.088 -3.024,-2.608 -3.984,-4.56 -0.96,-1.984 -1.44,-4.256 -1.44,-6.816 0,-2.592 0.48,-4.88 1.44,-6.864 0.96,-1.984 2.288,-3.52 3.984,-4.608 1.696,-1.088 3.616,-1.632 5.76,-1.632 z m 0,22.992 c 2.304,0 4.16,-0.864 5.568,-2.592 1.408,-1.728 2.112,-4.16 2.112,-7.296 0,-3.168 -0.704,-5.632 -2.112,-7.392 -1.408,-1.76 -3.264,-2.64 -5.568,-2.64 -2.304,0 -4.192,0.896 -5.664,2.688 -1.44,1.76 -2.16,4.208 -2.16,7.344 0,3.104 0.72,5.536 2.16,7.296 1.44,1.728 3.328,2.592 5.664,2.592 z m 5.232,-3.552 h -3.456 l -2.16,-4.944 h -0.912 v 4.944 h -3.024 V 535.11 h 3.408 c 1.76,0 3.104,0.368 4.032,1.104 0.928,0.704 1.392,1.76 1.392,3.168 0,0.8 -0.208,1.504 -0.624,2.112 a 4.302,4.302 0 0 1 -1.536,1.392 z m -6.528,-7.632 h 1.152 c 0.48,0 0.848,-0.144 1.104,-0.432 0.288,-0.288 0.432,-0.72 0.432,-1.296 0,-1.088 -0.528,-1.632 -1.584,-1.632 h -1.104 z"
         id="path830" />
    </g>
  </g>
</svg>
